<svg width="151" height="151" viewBox="0 0 151 151" fill="none" xmlns="http://www.w3.org/2000/svg">
<path opacity="0.5" d="M68.8613 126.117C68.6865 126.236 68.8422 126.502 69.0314 126.407C76.0087 122.935 103.845 104.713 120.678 61.4638C120.732 61.3249 120.53 61.232 120.464 61.3657C115.611 71.2203 96.5178 107.342 68.8613 126.117Z" fill="white"/>
<path d="M25.7432 38.757C25.8399 34.9623 28.9945 31.9646 32.7891 32.0614L91.2186 33.5509C94.4421 33.6331 97.0358 36.227 97.1176 39.4505L99.271 124.272C99.3351 126.795 97.2978 128.869 94.7745 128.851L27.7759 128.361C25.405 128.343 23.5093 126.385 23.5698 124.014L25.7432 38.757Z" fill="#FE7062"/>
<path d="M37.5996 127.181C37.5989 127.181 37.5982 127.181 37.5975 127.181L30.1066 126.893C27.596 126.797 25.6054 124.675 25.6695 122.163L25.9579 110.849C25.9603 110.755 26.0388 110.68 26.1332 110.683H26.1333C26.2277 110.685 26.3023 110.764 26.2999 110.858L26.0115 122.172C25.9522 124.497 27.7952 126.462 30.1199 126.551L37.6106 126.839C37.705 126.843 37.7786 126.922 37.775 127.017C37.7713 127.11 37.693 127.184 37.5996 127.181Z" fill="#F59589"/>
<path d="M26.2134 107.52C26.1191 107.518 26.0445 107.439 26.0469 107.345L26.0937 105.513C26.0961 105.418 26.1746 105.344 26.269 105.346H26.2691C26.3635 105.349 26.4381 105.427 26.4357 105.522L26.3889 107.354C26.3865 107.448 26.308 107.523 26.2136 107.52L26.2134 107.52Z" fill="#F59589"/>
<path d="M30.6729 33.3121C30.6967 32.0979 31.7883 31.1854 32.9872 31.3792C40.9388 32.6647 68.2914 36.7107 91.0212 35.5476C92.0577 35.4945 92.9356 36.3013 92.9642 37.3388L95.3174 122.544C95.3497 123.712 94.4333 124.687 93.2652 124.726C83.7098 125.047 44.3611 126.229 30.3833 124.403C29.5326 124.292 28.9034 123.558 28.9203 122.7L30.6729 33.3121Z" fill="#1D0709" fill-opacity="0.5"/>
<path d="M31.558 35.4683C31.5809 34.2998 32.6315 33.4217 33.7852 33.6083C41.4373 34.8453 67.76 38.739 89.6339 37.6197C90.6314 37.5686 91.4762 38.345 91.5037 39.3434L93.7683 121.34C93.7994 122.464 92.9175 123.402 91.7935 123.44C82.5978 123.749 44.7309 124.886 31.2794 123.129C30.4607 123.023 29.8553 122.316 29.8714 121.49L31.558 35.4683Z" fill="#F4A1AE"/>
<path opacity="0.78" d="M38.5061 41.9628L38.8741 59.539C38.8864 60.1236 39.3462 60.5998 39.93 60.6312C43.179 60.8058 53.3038 61.3112 59.0318 61.1588C59.6797 61.1415 60.205 60.6311 60.243 59.984C60.436 56.6945 60.919 47.1182 60.2709 43.0932C60.1662 42.4431 59.6221 41.9548 58.9648 41.915L39.7646 40.753C39.0722 40.7112 38.4916 41.2693 38.5061 41.9628Z" fill="white"/>
<path d="M52.0725 51.1905C53.5468 49.7162 53.5468 47.326 52.0725 45.8518C50.5983 44.3775 48.2081 44.3775 46.7338 45.8518C45.2596 47.326 45.2596 49.7162 46.7338 51.1905C48.2081 52.6647 50.5983 52.6647 52.0725 51.1905Z" fill="#EE4961"/>
<path d="M43.3891 59.455L55.4121 59.7615C56.1493 59.7803 56.6117 58.9776 56.2306 58.3464C55.2501 56.7224 53.1732 54.3203 49.4701 54.3319C45.901 54.3431 43.733 56.4097 42.6315 57.9035C42.164 58.5375 42.6015 59.4349 43.3891 59.455Z" fill="#EE4961"/>
<g opacity="0.6">
<path d="M86.6856 44.7202C86.9856 44.7278 87.2301 44.4885 87.229 44.1884L87.2287 44.101C87.2276 43.8009 86.9814 43.5447 86.6815 43.5317L65.3398 42.6069C65.04 42.5939 64.8703 42.8169 64.9627 43.1024L65.142 43.6561C65.2344 43.9416 65.5556 44.1815 65.8556 44.1891L86.6856 44.7202Z" fill="white"/>
</g>
<g opacity="0.6">
<path d="M65.2558 45.8796C64.956 45.8666 64.7863 46.0896 64.8788 46.3752L65.058 46.9288C65.1505 47.2143 65.4716 47.4542 65.7717 47.4619L86.6016 47.9929C86.9016 48.0005 87.1462 47.7612 87.1451 47.4611L87.1447 47.3738C87.1436 47.0736 86.8974 46.8175 86.5976 46.8045L65.2558 45.8796Z" fill="white"/>
</g>
<g opacity="0.6">
<path d="M65.1699 49.2C64.8701 49.187 64.7004 49.4099 64.7928 49.6955L64.972 50.2492C65.0645 50.5347 65.3856 50.7746 65.6857 50.7822L86.5156 51.3132C86.8157 51.3209 87.0602 51.0816 87.0591 50.7815L87.0588 50.6941C87.0577 50.394 86.8114 50.1378 86.5116 50.1248L65.1699 49.2Z" fill="white"/>
</g>
<g opacity="0.6">
<path d="M88.1545 67.3777C88.4545 67.3853 88.69 67.1462 88.6779 66.8463L88.6743 66.757C88.6622 66.4571 88.4068 66.2035 88.1068 66.1935L38.4695 64.5365C38.1696 64.5265 38.0722 64.7143 38.2531 64.9537L38.8114 65.6927C38.9923 65.9322 39.3858 66.1343 39.6858 66.142L88.1545 67.3777Z" fill="white"/>
</g>
<g opacity="0.6">
<path d="M38.3875 67.8093C38.0876 67.7993 37.9902 67.9871 38.1711 68.2265L38.7293 68.9655C38.9102 69.205 39.3037 69.4072 39.6037 69.4148L88.0724 70.6504C88.3725 70.658 88.608 70.4189 88.5959 70.1191L88.5923 70.0297C88.5801 69.7298 88.3248 69.4763 88.0248 69.4663L38.3875 67.8093Z" fill="white"/>
</g>
<path d="M44.6553 80.6295C44.6518 80.6294 44.6484 80.6293 44.6449 80.6292L40.4793 80.483C39.8785 80.462 39.393 80.0356 39.3499 79.4911L39.0727 75.9858C39.0562 75.777 39.126 75.5728 39.2694 75.4109C39.4296 75.2299 39.6678 75.1197 39.9228 75.1089H39.9229C40.2744 75.0938 40.7698 75.0643 41.2943 75.0331C42.4564 74.9639 43.7735 74.8854 44.5459 74.8954C45.1054 74.9036 45.5818 75.2541 45.7024 75.7498C45.8994 76.5598 45.8415 78.0791 45.7588 79.6969C45.7317 80.2284 45.2377 80.6449 44.6553 80.6295ZM39.9375 75.4506C39.7748 75.4576 39.6246 75.5258 39.5256 75.6376C39.4443 75.7294 39.4046 75.8435 39.4138 75.9589L39.6909 79.4642C39.7202 79.8351 40.0643 80.1262 40.4912 80.1411L44.6569 80.2873C44.6593 80.2874 44.6618 80.2875 44.6643 80.2876C45.0625 80.2981 45.3995 80.0266 45.4172 79.6795C45.4985 78.0879 45.5561 76.5959 45.3699 75.8306C45.2885 75.4958 44.9466 75.2481 44.5542 75.2378C44.55 75.2377 44.5457 75.2376 44.5414 75.2376C43.7814 75.2277 42.4137 75.3091 41.3147 75.3746C40.7887 75.4059 40.2918 75.4355 39.9374 75.4507L39.9375 75.4506Z" fill="white"/>
<g opacity="0.6">
<path d="M48.6098 77.0926C48.3098 77.0841 48.1209 77.3161 48.19 77.6081L48.4348 78.6422C48.5039 78.9343 48.806 79.1769 49.1061 79.1814L87.1832 79.7536C87.4833 79.7581 87.7297 79.5162 87.7308 79.2161L87.7325 78.7522C87.7336 78.4521 87.489 78.1995 87.189 78.191L48.6098 77.0926Z" fill="white"/>
</g>
<path d="M40.5383 76.3646C40.8523 76.191 41.2476 76.3095 41.4144 76.6272L42.1987 78.1213C42.2772 78.2709 42.4926 78.267 42.5657 78.1148L44.7198 73.6286C44.8273 73.4048 45.1625 73.49 45.1524 73.738C45.0962 75.1256 44.6607 77.7548 42.3864 79.9069C42.3864 79.9069 41.1763 79.4006 40.247 77.2141C40.1127 76.8982 40.238 76.5307 40.5383 76.3646Z" fill="#EE4961"/>
<path d="M44.4267 89.5598C44.4233 89.5597 44.4199 89.5596 44.4164 89.5595L40.2507 89.4133C39.6499 89.3922 39.1644 88.9658 39.1213 88.4213L38.8442 84.916C38.8277 84.7073 38.8975 84.5031 39.0409 84.3411C39.2011 84.1601 39.4393 84.05 39.6942 84.0391H39.6943C40.0459 84.0241 40.5414 83.9945 41.066 83.9633C42.228 83.8941 43.545 83.8156 44.3174 83.8256C44.8763 83.8347 45.3532 84.1843 45.4738 84.6799C45.6709 85.4901 45.613 87.0093 45.5303 88.6272C45.5032 89.1587 45.0092 89.5751 44.4267 89.5598ZM39.7089 84.3809C39.5462 84.3879 39.3961 84.456 39.2971 84.5678C39.2158 84.6597 39.1761 84.7738 39.1852 84.8892L39.4624 88.3945C39.4917 88.7654 39.8358 89.0565 40.2627 89.0714L44.4284 89.2176C44.4308 89.2177 44.4333 89.2178 44.4358 89.2178C44.834 89.2284 45.1709 88.957 45.1887 88.6098C45.2699 87.0183 45.3275 85.5262 45.1413 84.7609C45.0598 84.4262 44.718 84.1785 44.3257 84.1681C44.3214 84.168 44.3172 84.1679 44.3128 84.1679C43.553 84.158 42.1852 84.2394 41.0863 84.3049C40.5603 84.3362 40.0634 84.3657 39.7089 84.3809Z" fill="white"/>
<path opacity="0.6" d="M40.1481 84.7421C41.025 84.7046 42.9323 84.56 43.8349 84.5717C44.2174 84.5767 44.5468 84.8163 44.628 85.15C44.7857 85.7984 44.73 87.0812 44.6695 88.265C44.6514 88.6195 44.3184 88.8944 43.9206 88.8805L40.5917 88.7636C40.1823 88.7492 39.8495 88.4614 39.8207 88.0967L39.5991 85.2955C39.5763 85.0058 39.8231 84.756 40.1481 84.7421Z" fill="white"/>
<g opacity="0.6">
<path d="M48.3813 86.0229C48.0813 86.0143 47.8924 86.2463 47.9615 86.5384L48.2063 87.5725C48.2754 87.8645 48.5774 88.1072 48.8775 88.1117L86.9547 88.6838C87.2548 88.6884 87.5012 88.4465 87.5023 88.1464L87.5039 87.6825C87.505 87.3824 87.2605 87.1298 86.9605 87.1213L48.3813 86.0229Z" fill="white"/>
</g>
<path d="M44.2002 98.4901C44.1968 98.49 44.1933 98.4899 44.1898 98.4898L40.0241 98.3435C39.4234 98.3225 38.9379 97.8961 38.8948 97.3516L38.6176 93.8463C38.6011 93.6376 38.671 93.4333 38.8144 93.2712C38.9746 93.0903 39.2127 92.9803 39.4677 92.9694C39.8188 92.9544 40.3133 92.9249 40.8369 92.8937C41.9423 92.8279 43.318 92.7459 44.0908 92.756C44.6501 92.7606 45.1267 93.1147 45.2473 93.6103C45.4442 94.4199 45.3864 95.9393 45.3038 97.5574C45.2766 98.089 44.7826 98.5054 44.2002 98.4901ZM44.0991 93.0983C44.0949 93.0982 44.0906 93.0981 44.0863 93.0981C43.3259 93.0881 41.957 93.1697 40.8572 93.2352C40.3321 93.2665 39.8362 93.296 39.4824 93.3112H39.4823C39.3196 93.3182 39.1696 93.3862 39.0706 93.4981C38.9893 93.5898 38.9496 93.7039 38.9587 93.8193L39.2359 97.3247C39.2652 97.6956 39.6093 97.9867 40.0362 98.0017L44.2018 98.1479C44.2043 98.148 44.2068 98.148 44.2093 98.1481C44.6075 98.1587 44.9444 97.8872 44.9622 97.5401C45.0434 95.9481 45.1008 94.456 44.9148 93.6912C44.8334 93.3563 44.4915 93.1087 44.0991 93.0983Z" fill="white"/>
<path opacity="0.6" d="M39.9196 93.6724C40.7964 93.6348 42.7038 93.4902 43.6063 93.502C43.9888 93.507 44.3182 93.7465 44.3994 94.0803C44.5572 94.7286 44.5014 96.0114 44.441 97.1953C44.4228 97.5498 44.0898 97.8247 43.6921 97.8107L40.3631 97.6939C39.9538 97.6795 39.6209 97.3916 39.5921 97.027L39.3706 94.2258C39.3477 93.9361 39.5946 93.6863 39.9196 93.6724Z" fill="white"/>
<g opacity="0.6">
<path d="M48.1547 94.9531C47.8547 94.9446 47.6659 95.1766 47.735 95.4686L47.9797 96.5027C48.0488 96.7948 48.3509 97.0374 48.651 97.0419L86.7281 97.6141C87.0282 97.6186 87.2746 97.3767 87.2757 97.0766L87.2774 96.6127C87.2785 96.3126 87.0339 96.06 86.7339 96.0515L48.1547 94.9531Z" fill="white"/>
</g>
<path d="M43.9717 107.42C43.9683 107.42 43.9648 107.42 43.9613 107.42L39.7957 107.274C39.1949 107.253 38.7094 106.826 38.6663 106.282L38.3891 102.776C38.3726 102.568 38.4425 102.363 38.586 102.201C38.7462 102.02 38.9844 101.911 39.2393 101.9C39.5902 101.885 40.0847 101.855 40.6082 101.824C41.7136 101.758 43.0895 101.676 43.8624 101.686C44.4178 101.694 44.8982 102.045 45.0188 102.54C45.2158 103.35 45.158 104.87 45.0754 106.488C45.0482 107.019 44.5542 107.436 43.9717 107.42ZM43.8709 102.029C43.8665 102.028 43.8623 102.028 43.8579 102.028C43.0973 102.018 41.7284 102.1 40.6285 102.165C40.1035 102.197 39.6077 102.226 39.2539 102.241H39.2538C39.0911 102.248 38.9411 102.316 38.8421 102.428C38.7608 102.52 38.721 102.634 38.7302 102.75L39.0074 106.255C39.0368 106.626 39.3808 106.917 39.8077 106.932L43.9734 107.078C43.9758 107.078 43.9783 107.078 43.9808 107.078C44.379 107.089 44.7159 106.817 44.7337 106.47C44.8149 104.878 44.8724 103.386 44.6863 102.621C44.6049 102.287 44.2631 102.039 43.8709 102.029Z" fill="white"/>
<path opacity="0.6" d="M39.693 102.603C40.5698 102.565 42.4772 102.42 43.3798 102.432C43.7623 102.437 44.0917 102.677 44.1729 103.011C44.3306 103.659 44.2749 104.942 44.2144 106.125C44.1963 106.48 43.8633 106.755 43.4655 106.741L40.1366 106.624C39.7272 106.61 39.3944 106.322 39.3656 105.957L39.144 103.156C39.1212 102.866 39.368 102.617 39.693 102.603Z" fill="white"/>
<g opacity="0.6">
<path d="M47.9262 103.883C47.6262 103.875 47.4373 104.107 47.5064 104.399L47.7512 105.433C47.8203 105.725 48.1224 105.968 48.4225 105.972L86.4997 106.544C86.7997 106.549 87.0461 106.307 87.0472 106.007L87.0489 105.543C87.05 105.243 86.8054 104.99 86.5054 104.982L47.9262 103.883Z" fill="white"/>
</g>
<path d="M65.9221 21.3484C63.849 19.8263 62.0131 19.8087 60.7115 20.1569C59.5242 20.4746 58.7314 21.5929 58.8123 22.8193L59.2144 28.9145L65.8289 29.6718C65.8289 29.6718 69.9879 24.3335 65.9221 21.3484ZM62.8816 26.18C61.9687 26.1567 61.2474 25.3977 61.2707 24.4848C61.294 23.5718 62.0529 22.8506 62.9659 22.8738C63.8789 22.8971 64.6001 23.6561 64.5768 24.5691C64.5536 25.482 63.7946 26.2032 62.8816 26.18Z" fill="#515965"/>
<path d="M59.9412 26.3844C59.8539 26.3821 59.7811 26.3136 59.7752 26.2247L59.7112 25.254C59.705 25.1597 59.7763 25.0783 59.8706 25.072C59.9648 25.0653 60.0463 25.1372 60.0525 25.2314L60.1166 26.2021C60.1227 26.2964 60.0514 26.3778 59.9572 26.3841C59.9518 26.3844 59.9465 26.3845 59.9412 26.3844ZM59.8157 24.4822C59.7284 24.4799 59.6556 24.4114 59.6497 24.3225L59.6011 23.5855C59.5237 22.4118 60.2881 21.3404 61.4189 21.0378C62.2177 20.824 63.0357 20.8113 63.8497 21C63.9418 21.0212 63.9992 21.1132 63.9778 21.2052C63.9566 21.2972 63.864 21.3543 63.7726 21.3333C63.0133 21.1573 62.2514 21.1692 61.5073 21.3684C60.5339 21.6288 59.8757 22.5518 59.9424 23.5629L59.991 24.3C59.9973 24.3943 59.9259 24.4758 59.8317 24.4819C59.8263 24.4823 59.821 24.4824 59.8157 24.4822Z" fill="#F59589"/>
<path d="M50.0664 32.6137L50.1443 29.5564C50.1712 28.501 51.0675 27.678 52.1214 27.741L62.6517 28.3708L73.182 29.0006C74.1166 29.0564 74.8554 29.8142 74.8876 30.7499L74.9889 33.6921L50.0664 32.6137Z" fill="#515965"/>
<path d="M57.1158 29.0321C57.0214 29.0296 56.9469 28.9511 56.9493 28.8568C56.9517 28.7623 57.0302 28.6877 57.1246 28.6901L58.0311 28.7132H58.0312C58.1257 28.7157 58.2002 28.7942 58.1978 28.8885C58.1954 28.9829 58.1169 29.0576 58.0224 29.0552L57.1159 29.0321H57.1158Z" fill="#F59589"/>
<path d="M51.231 31.6937C51.1367 31.6912 51.0621 31.6127 51.0645 31.5184L51.0961 30.2817C51.1206 29.3199 51.9229 28.5575 52.8846 28.582L56.2173 28.667C56.3117 28.6695 56.3864 28.748 56.384 28.8423C56.3816 28.9368 56.3031 29.0114 56.2086 29.009L52.8759 28.924C52.1028 28.9043 51.4578 29.5173 51.4381 30.2904L51.4065 31.5271C51.4041 31.6215 51.3254 31.6961 51.231 31.6937Z" fill="#F59589"/>
<path d="M43.489 31.3264L80.3495 32.265C81.6749 32.2988 82.7837 33.2815 82.9765 34.5932L83.0031 34.7742C83.2143 36.211 82.0796 37.4913 80.6279 37.4543L42.8111 36.4902C41.9423 36.4681 41.2685 35.724 41.3323 34.8572L41.4568 33.1667C41.5346 32.1094 42.429 31.2994 43.489 31.3264Z" fill="#1D0709" fill-opacity="0.5"/>
<path d="M101.305 74.709C101.39 74.546 101.631 74.5717 101.68 74.7489C101.863 75.405 102.304 76.55 103.23 76.9566C103.276 76.977 103.32 76.9977 103.363 77.0186C103.405 76.8927 103.406 76.7465 103.305 76.5928C103.017 76.153 103.537 75.5522 103.537 75.5522C103.537 75.5522 103.571 76.0813 103.974 76.4144C104.32 76.7014 104.486 77.34 104.249 77.8638C103.748 79.81 102.998 82.3841 105.921 84.2646C108.843 86.1451 112.959 80.7156 112.959 80.7156L110.916 87.1916C110.916 87.1916 107.763 89.5185 104.096 86.2466C100.428 82.9747 102.859 78.2137 102.859 78.2137C102.859 78.2137 100.062 77.0853 101.305 74.709Z" fill="url(#paint0_linear_485_8372)"/>
<path d="M52.5909 128.753C52.5909 128.753 52.1052 129.518 51.983 131.662C51.9716 131.862 52.1298 132.032 52.3299 132.032H56.1286C56.2815 132.032 56.3905 131.882 56.3416 131.737C56.119 131.078 55.446 129.472 53.9442 128.554L52.5909 128.753Z" fill="#111434"/>
<path d="M52.4258 127.3L52.6406 129.102C52.6592 129.257 52.781 129.382 52.9365 129.4C53.1442 129.424 53.4462 129.44 53.7397 129.392C54.0064 129.348 54.1985 129.11 54.1985 128.84V127.101L52.4258 127.3Z" fill="url(#paint1_linear_485_8372)"/>
<path d="M61.9892 128.554C61.9892 128.554 61.262 129.684 61.2776 131.236C61.2813 131.601 61.5872 131.892 61.9526 131.892H67.8525C68.1288 131.892 68.2409 131.537 68.0149 131.378C66.8985 130.594 64.7041 129.13 63.117 128.554H61.9892Z" fill="#111434"/>
<path d="M61.3828 126.608L61.8411 128.834C61.8923 129.082 62.1358 129.25 62.3838 129.194C62.5346 129.161 62.7124 129.096 62.9025 128.977C63.0831 128.864 63.1746 128.65 63.1378 128.44L62.6637 125.744L61.3828 126.608Z" fill="url(#paint2_linear_485_8372)"/>
<path d="M53.2675 95.6729C53.2675 95.6729 51.674 97.0777 51.3741 98.7679C51.0742 100.458 52.2238 127.93 52.2238 127.93C52.2238 127.93 53.8172 128.195 54.6386 127.697C54.6386 127.697 55.6128 109.868 56.3533 105.748C56.3533 105.748 60.2369 124.217 61.3129 127.554C61.3129 127.554 62.848 127.74 63.3431 127.448C63.3431 127.448 62.3258 103.508 61.0475 99.2521L53.2675 95.6729Z" fill="#111434"/>
<path d="M56.3069 105.156C56.3202 105.156 56.3336 105.154 56.3473 105.151C56.4329 105.128 56.4839 105.041 56.4615 104.955L55.7847 102.359C55.7744 102.32 55.7501 102.287 55.7164 102.265L54.2539 101.327C54.1806 101.279 54.0813 101.3 54.033 101.375C53.9855 101.449 54.0071 101.548 54.0813 101.596L55.4912 102.5L56.1523 105.036C56.1707 105.108 56.2359 105.156 56.3069 105.156Z" fill="#DB6E61"/>
<path d="M68.9925 79.7993C62.2845 79.2424 60.5312 80.6306 60.5312 80.6306L63.7549 85.7198C63.7549 85.7198 70.3462 85.5896 75.0691 81.9494C74.1852 80.9975 73.5713 79.9455 73.1776 79.1263C71.9597 79.6324 70.5572 79.9292 68.9925 79.7993Z" fill="#FFBF9D"/>
<path d="M79.4973 69.9529C79.4883 69.738 79.197 69.6795 79.1056 69.8743L78.2497 71.7007C78.0843 72.0537 78.0313 72.4488 78.0978 72.8329L78.3981 73.896C78.4879 74.4145 78.3524 74.9456 78.0238 75.3565C77.2373 76.3397 75.5623 78.1355 73.1777 79.1264C73.5714 79.9455 74.1853 80.9975 75.0692 81.9494C76.8022 80.6138 78.2839 78.8062 79.0958 76.3583C79.4847 76.2388 79.7446 75.8726 79.7292 75.466L79.4973 69.9529Z" fill="url(#paint3_linear_485_8372)"/>
<path d="M71.201 82.7498C68.8396 80.2052 64.3415 79.0556 61.7372 78.5834C60.5963 78.3765 59.4717 79.0113 59.0674 80.0981C57.8955 83.2485 54.7081 91.4448 54.0903 92.8535C53.5834 94.0091 53.0541 95.1378 52.7179 95.8435C52.517 96.2651 52.6925 96.7695 53.1132 96.9723C55.3043 98.0284 59.2469 99.2233 60.8452 99.6895C61.1968 99.792 61.5469 99.528 61.5469 99.1618C61.5469 98.8512 61.6313 98.5464 61.7911 98.2801L67.8445 88.1925C71.6176 92.3761 74.9217 92.7586 77.46 91.8429C77.0332 90.5239 76.7539 89.2024 76.62 87.8784C72.8702 87.2361 71.201 82.7498 71.201 82.7498Z" fill="#DB6E61"/>
<path d="M83.8728 86.4364L82.6469 85.7198C80.4561 87.2244 78.1183 88.1353 76.6191 87.8784C76.7531 89.2024 77.0324 90.5239 77.4592 91.8429C80.8031 90.6366 83.8728 86.4364 83.8728 86.4364Z" fill="url(#paint4_linear_485_8372)"/>
<path d="M89.6948 86.6943C88.9324 86.2795 86.6703 85.9226 86.6703 85.9226C86.6703 85.9226 84.0702 84.4014 83.3216 84.1019C82.7 83.8532 82.4324 84.783 82.3595 85.1053C82.3447 85.171 82.3379 85.2115 82.3379 85.2115L82.4341 85.8298L85.0609 86.9972C85.6231 87.2472 86.2435 87.3371 86.8537 87.2573L89.6583 86.8904C89.7034 86.8844 89.7395 86.8502 89.7478 86.8056C89.7561 86.7609 89.7347 86.716 89.6948 86.6943Z" fill="url(#paint5_linear_485_8372)"/>
<path d="M65.3182 73.9101L63.3066 78.8188C63.3066 78.8188 65.618 80.4186 67.4775 80.2663L68.4814 75.8525L65.3182 73.9101Z" fill="url(#paint6_linear_485_8372)"/>
<path d="M68.7164 70.5637C68.7625 70.629 70.1716 75.7198 70.1716 75.7198L67.2478 76.4626L65.1953 71.8361C65.1953 71.8361 67.9451 69.471 68.7164 70.5637Z" fill="url(#paint7_linear_485_8372)"/>
<path d="M66.2959 72.539L67.1856 75.0591C67.197 75.0914 67.2123 75.1213 67.232 75.1494C67.3528 75.3209 67.8115 75.8806 68.3555 75.3765C68.8492 74.919 69.3065 74.5088 69.7289 74.4343C69.9186 74.4009 70.1023 74.5166 70.1536 74.7022C70.2815 75.1648 70.5505 76.2125 70.6453 77.1584C70.6645 77.3503 70.532 77.5238 70.3425 77.5598C69.7714 77.6683 68.5606 77.8632 67.5497 77.792C67.4128 77.7823 67.2922 77.7002 67.2351 77.5753C66.9565 76.9666 66.103 75.1196 65.7856 74.6418C65.4876 74.1933 64.7572 74.2058 64.4509 74.233C64.3504 74.2419 64.2517 74.2096 64.1759 74.1431C63.9079 73.9082 63.3978 73.3085 64.1153 72.5905C64.2654 72.4402 64.2614 72.1979 64.1067 72.0523C63.7986 71.7626 63.469 71.2488 63.9824 70.6116C64.5041 69.9639 65.1929 70.067 65.6149 70.221C65.7855 70.2833 65.9716 70.2111 66.0644 70.055C66.1172 69.9661 66.2093 69.8988 66.369 69.9125C66.5842 69.931 66.7652 69.7514 66.7613 69.5355C66.7538 69.1205 66.9024 68.5963 67.6222 68.3723C68.8995 67.9747 69.696 69.2087 69.7749 70.1294C69.8537 71.0502 68.4444 71.4024 67.6158 71.3404C66.9857 71.2932 66.5179 71.9177 66.3298 72.2198C66.2703 72.3154 66.2584 72.4327 66.2959 72.539Z" fill="url(#paint8_linear_485_8372)"/>
<path d="M66.2959 72.539L67.1856 75.0591C67.197 75.0914 67.2123 75.1213 67.232 75.1494C67.3528 75.3209 67.8115 75.8806 68.3555 75.3765C68.8492 74.919 69.3065 74.5088 69.7289 74.4343C69.9186 74.4009 70.1023 74.5166 70.1536 74.7022C70.2815 75.1648 70.5505 76.2125 70.6453 77.1584C70.6645 77.3503 70.532 77.5238 70.3425 77.5598C69.7714 77.6683 68.5606 77.8632 67.5497 77.792C67.4128 77.7823 67.2922 77.7002 67.2351 77.5753C66.9565 76.9666 66.103 75.1196 65.7856 74.6418C65.4876 74.1933 64.7572 74.2058 64.4509 74.233C64.3504 74.2419 64.2517 74.2096 64.1759 74.1431C63.9079 73.9082 63.3978 73.3085 64.1153 72.5905C64.2654 72.4402 64.2614 72.1979 64.1067 72.0523C63.7986 71.7626 63.469 71.2488 63.9824 70.6116C64.5041 69.9639 65.1929 70.067 65.6149 70.221C65.7855 70.2833 65.9716 70.2111 66.0644 70.055C66.1172 69.9661 66.2093 69.8988 66.369 69.9125C66.5842 69.931 66.7652 69.7514 66.7613 69.5355C66.7538 69.1205 66.9024 68.5963 67.6222 68.3723C68.8995 67.9747 69.696 69.2087 69.7749 70.1294C69.8537 71.0502 68.4444 71.4024 67.6158 71.3404C66.9857 71.2932 66.5179 71.9177 66.3298 72.2198C66.2703 72.3154 66.2584 72.4327 66.2959 72.539Z" fill="#F27A6C" fill-opacity="0.25"/>
<path d="M66.1193 75.5561C66.1193 75.5561 65.913 73.9577 65.248 73.8793C64.5831 73.801 63.9358 74.3475 64.597 75.2447C65.4193 76.3608 66.1193 75.5561 66.1193 75.5561Z" fill="url(#paint9_linear_485_8372)"/>
<path d="M94.2698 88.6627C103.789 88.6627 111.506 80.9456 111.506 71.4261C111.506 61.9066 103.789 54.1895 94.2698 54.1895C84.7503 54.1895 77.0332 61.9066 77.0332 71.4261C77.0332 80.9456 84.7503 88.6627 94.2698 88.6627Z" fill="url(#paint10_linear_485_8372)"/>
<path d="M94.2689 88.0896C103.472 88.0896 110.932 80.6291 110.932 71.4261C110.932 62.2231 103.472 54.7626 94.2689 54.7626C85.066 54.7626 77.6055 62.2231 77.6055 71.4261C77.6055 80.6291 85.066 88.0896 94.2689 88.0896Z" fill="url(#paint11_linear_485_8372)"/>
<path opacity="0.7" d="M80.3321 65.2406C80.2851 65.242 80.2369 65.2328 80.1913 65.2115C80.0355 65.1387 79.9683 64.9536 80.041 64.7982C82.5634 59.394 87.8307 55.9233 93.7874 55.7402C94.7379 55.711 95.6924 55.7673 96.6247 55.908C96.7947 55.9335 96.9117 56.0919 96.886 56.2619C96.8604 56.4317 96.7033 56.5496 96.5321 56.5229C95.6367 56.3882 94.7196 56.334 93.8065 56.3621C88.0859 56.5379 83.0273 59.8712 80.6047 65.0611C80.5534 65.1712 80.4458 65.2371 80.3321 65.2406Z" fill="white"/>
<path opacity="0.78" d="M104.615 81.7506C110.123 76.2429 110.123 67.313 104.615 61.8053C99.1075 56.2975 90.1777 56.2975 84.6699 61.8053C79.1622 67.313 79.1622 76.2429 84.6699 81.7506C90.1777 87.2584 99.1075 87.2584 104.615 81.7506Z" fill="white"/>
<path d="M93.5833 82.3002L93.5361 80.7665C91.9353 80.7517 90.3424 80.4229 89.2041 79.9658C88.7976 79.8026 88.5793 79.3588 88.6816 78.9328L89.0273 77.4923C89.1541 76.9638 89.7157 76.6752 90.2231 76.8699C91.3517 77.3027 92.7387 77.6299 94.2221 77.5843C95.762 77.5369 96.8944 76.9795 96.8615 75.9094C96.8319 74.9437 95.9268 74.3968 93.7689 73.8885C90.6895 73.1472 88.4561 71.8834 88.3734 69.195C88.2988 66.7675 90.0168 64.8599 93.0813 64.2693L93.0342 62.7355C93.019 62.242 93.4068 61.8296 93.9004 61.8145L94.8014 61.7867C95.295 61.7716 95.7073 62.1593 95.7225 62.6529L95.7648 64.03C97.2461 64.0437 98.3308 64.2636 99.1946 64.5376C99.6372 64.678 99.891 65.1423 99.7833 65.594L99.4656 66.9262C99.3431 67.4399 98.8072 67.7357 98.3077 67.5642C97.5117 67.2908 96.3897 67.0152 94.9436 67.0597C93.1165 67.1159 92.6179 67.8888 92.6387 68.5674C92.6644 69.4026 93.7783 69.9431 96.1759 70.601C99.6003 71.5146 101.053 72.8806 101.131 75.4124C101.202 77.7354 99.5438 79.8764 96.219 80.5012L96.2717 82.2176C96.2869 82.7111 95.8991 83.1235 95.4056 83.1387L94.5043 83.1664C94.0108 83.1815 93.5984 82.7937 93.5833 82.3002Z" fill="url(#paint12_linear_485_8372)"/>
<path d="M129.771 130.203L129.957 131.732C129.993 132.022 130.221 132.252 130.511 132.285C131.001 132.341 131.788 132.398 132.557 132.317C132.895 132.281 133.115 131.939 133.012 131.615C132.824 131.025 132.481 130.139 131.986 129.618H130.29C129.977 129.618 129.734 129.892 129.771 130.203Z" fill="#1D0709" fill-opacity="0.5"/>
<path d="M116.489 112.294L116.203 113.978C116.203 113.978 117.162 123.688 117.332 127.572C117.359 128.181 117.201 128.782 116.882 129.301L115.215 132.008L119.451 129.508L119.535 128.991L118.842 128.038L119.75 117.161C119.804 116.522 119.672 115.881 119.37 115.315L118.494 113.669L116.489 112.294Z" fill="url(#paint13_linear_485_8372)"/>
<path d="M114.936 132.4H116.287C116.541 132.4 116.779 132.284 116.933 132.083C117.355 131.536 118.228 130.468 118.646 130.44C119.208 130.402 119.136 132.4 119.136 132.4H119.451L119.85 129.917C119.95 129.293 119.64 128.674 119.079 128.381C119.079 128.381 118.95 129.331 118.254 129.751C117.557 130.172 115.419 131.677 115.419 131.677C115.419 131.677 115.157 131.64 114.869 131.692C114.443 131.769 114.502 132.4 114.936 132.4Z" fill="#1D0709" fill-opacity="0.5"/>
<path d="M122.291 113.094C122.291 113.094 127.907 123.746 128.799 126.179C129.692 128.611 130.005 130.64 130.017 130.832C130.035 131.132 130.409 131.42 131.438 131.42C131.969 131.42 132.23 131.207 132.357 131.001C132.466 130.825 132.471 130.605 132.38 130.42C132.055 129.762 131.024 127.661 130.642 126.709C130.186 125.571 129.206 120.415 128.668 118.622C128.13 116.83 127.522 114.885 125.181 113.094C125.181 113.094 123.573 111.519 122.291 113.094Z" fill="url(#paint14_linear_485_8372)"/>
<path d="M121.956 98.6783C121.366 96.9023 118.713 94.9534 118.713 94.9534C116.039 96.5593 113.495 95.7773 113.495 95.7773C113.495 95.7773 113.183 98.1506 113.548 100.029C113.913 101.907 116.203 113.978 116.203 113.978C119.811 114.709 125.359 113.243 125.359 113.243C123.061 109.163 122.545 100.454 121.956 98.6783Z" fill="#111434"/>
<path d="M113.867 70.8956C113.867 70.8956 113.02 67.0975 117.371 68.1029C117.371 68.1029 119.483 67.7578 119.59 69.7511C119.59 69.7511 120.951 70.6481 119.955 72.3731C119.955 72.3731 124 70.8104 125.763 74.3565C127.526 77.9026 125.906 79.8538 124.207 80.362C124.207 80.362 125.583 81.053 124.932 82.6132C124.28 84.1734 120.982 85.2732 119.033 83.3758C119.033 83.3758 113.488 84.1086 113.599 80.192C113.599 80.192 111.02 78.5266 113.729 75.2898C116.437 72.053 113.867 70.8956 113.867 70.8956Z" fill="#111434"/>
<path d="M113.626 79.7C114.059 79.57 114.904 79.3848 115.942 79.5042C118.374 79.7843 119.983 82.1725 119.43 84.5574C118.703 87.6882 117.829 92.7479 119.04 95.2102C119.04 95.2102 116.388 98.1329 113.496 95.7773C113.496 95.7773 112.198 90.1212 110.498 87.6382C109.325 85.9246 112.367 81.2048 113.139 80.0612C113.256 79.8888 113.427 79.7599 113.626 79.7Z" fill="#6E7B8F"/>
<path d="M116.041 74.9427C116.041 74.9427 117.334 78.5999 117.431 80.2133C117.431 80.2133 116.002 80.8631 114.656 79.7664C114.656 79.7664 114.515 76.1134 114.311 75.4593L116.041 74.9427Z" fill="url(#paint15_linear_485_8372)"/>
<path d="M114.245 69.9561C114.245 69.9561 110.863 74.6888 112.884 76.0634C114.906 77.4381 117.313 74.0748 117.313 74.0748C117.313 74.0748 118.098 71.4844 117.278 70.6057C116.457 69.727 114.245 69.9561 114.245 69.9561Z" fill="url(#paint16_linear_485_8372)"/>
<path d="M115.811 68.8252C115.811 68.8252 114.257 69.1933 114.039 69.8962C113.821 70.5991 116.242 71.251 116.921 71.2829L117.467 74.1194C117.467 74.1194 119.083 71.451 118.443 69.9099C117.803 68.3688 115.811 68.8252 115.811 68.8252Z" fill="#111434"/>
<path d="M116.658 73.7266C116.658 73.7266 117.975 72.2021 118.498 73.196C119.022 74.1898 117.313 74.9359 116.722 74.448L116.658 73.7266Z" fill="url(#paint17_linear_485_8372)"/>
<path d="M118.089 85.4021C118.089 85.4021 116.823 89.6563 113.124 92.718C109.426 95.7796 104.099 90.1169 104.099 90.1169C104.099 90.1169 104.328 88.4939 102.412 87.4488C101.358 86.874 105.369 87.0032 105.975 88.1891C106.58 89.3751 105.362 89.3097 106.983 90.5923C108.566 91.8442 112.116 91.643 113.429 85.6634C113.503 85.3279 113.944 83.4836 114.169 83.2247C115.786 81.3704 118.185 83.4921 118.089 85.4021Z" fill="url(#paint18_linear_485_8372)"/>
<defs>
<linearGradient id="paint0_linear_485_8372" x1="100.057" y1="70.1497" x2="111.044" y2="87.7592" gradientUnits="userSpaceOnUse">
<stop stop-color="#FEBBBA"/>
<stop offset="1" stop-color="#FF928E"/>
</linearGradient>
<linearGradient id="paint1_linear_485_8372" x1="52.4258" y1="128.262" x2="54.1985" y2="128.262" gradientUnits="userSpaceOnUse">
<stop stop-color="#A22B25"/>
<stop offset="1" stop-color="#C0423C"/>
</linearGradient>
<linearGradient id="paint2_linear_485_8372" x1="61.3828" y1="127.475" x2="63.1458" y2="127.475" gradientUnits="userSpaceOnUse">
<stop stop-color="#A22B25"/>
<stop offset="1" stop-color="#C0423C"/>
</linearGradient>
<linearGradient id="paint3_linear_485_8372" x1="73.1778" y1="75.8525" x2="79.7298" y2="75.8525" gradientUnits="userSpaceOnUse">
<stop stop-color="#A22B25"/>
<stop offset="1" stop-color="#C0423C"/>
</linearGradient>
<linearGradient id="paint4_linear_485_8372" x1="89.6048" y1="75.5221" x2="73.5811" y2="95.4571" gradientUnits="userSpaceOnUse">
<stop stop-color="#A22B25"/>
<stop offset="1" stop-color="#C0423C"/>
</linearGradient>
<linearGradient id="paint5_linear_485_8372" x1="89.1713" y1="81.8945" x2="80.0239" y2="93.2747" gradientUnits="userSpaceOnUse">
<stop stop-color="#A22B25"/>
<stop offset="1" stop-color="#C0423C"/>
</linearGradient>
<linearGradient id="paint6_linear_485_8372" x1="72.0861" y1="66.6366" x2="58.3747" y2="91.8299" gradientUnits="userSpaceOnUse">
<stop stop-color="#263238"/>
<stop offset="1" stop-color="#263238"/>
</linearGradient>
<linearGradient id="paint7_linear_485_8372" x1="67.7651" y1="71.2781" x2="67.4374" y2="81.3221" gradientUnits="userSpaceOnUse">
<stop stop-color="#A22B25"/>
<stop offset="1" stop-color="#C0423C"/>
</linearGradient>
<linearGradient id="paint8_linear_485_8372" x1="67.181" y1="68.2957" x2="67.181" y2="77.8073" gradientUnits="userSpaceOnUse">
<stop stop-color="#EF4A61"/>
<stop offset="1" stop-color="#892A38"/>
</linearGradient>
<linearGradient id="paint9_linear_485_8372" x1="64.1754" y1="81.583" x2="65.2706" y2="74.706" gradientUnits="userSpaceOnUse">
<stop stop-color="#A22B25"/>
<stop offset="1" stop-color="#C0423C"/>
</linearGradient>
<linearGradient id="paint10_linear_485_8372" x1="71.5347" y1="99.5147" x2="93.8197" y2="71.9822" gradientUnits="userSpaceOnUse">
<stop stop-color="#FE7062"/>
<stop offset="1" stop-color="#FF928E"/>
</linearGradient>
<linearGradient id="paint11_linear_485_8372" x1="106.276" y1="52.0176" x2="41.1133" y2="157.349" gradientUnits="userSpaceOnUse">
<stop stop-color="#FE7062"/>
<stop offset="1" stop-color="#FF928E"/>
</linearGradient>
<linearGradient id="paint12_linear_485_8372" x1="107.795" y1="58.9599" x2="60.5677" y2="107.533" gradientUnits="userSpaceOnUse">
<stop stop-color="#FE7062"/>
<stop offset="1" stop-color="#FF928E"/>
</linearGradient>
<linearGradient id="paint13_linear_485_8372" x1="115.953" y1="143.881" x2="120.658" y2="88.8896" gradientUnits="userSpaceOnUse">
<stop stop-color="#FEBBBA"/>
<stop offset="1" stop-color="#FF928E"/>
</linearGradient>
<linearGradient id="paint14_linear_485_8372" x1="125.417" y1="144.699" x2="130.124" y2="89.6934" gradientUnits="userSpaceOnUse">
<stop stop-color="#FEBBBA"/>
<stop offset="1" stop-color="#FF928E"/>
</linearGradient>
<linearGradient id="paint15_linear_485_8372" x1="113.984" y1="82.0261" x2="116.044" y2="77.4512" gradientUnits="userSpaceOnUse">
<stop stop-color="#FEBBBA"/>
<stop offset="1" stop-color="#FF928E"/>
</linearGradient>
<linearGradient id="paint16_linear_485_8372" x1="113.878" y1="70.908" x2="118.058" y2="79.9592" gradientUnits="userSpaceOnUse">
<stop stop-color="#FEBBBA"/>
<stop offset="1" stop-color="#FF928E"/>
</linearGradient>
<linearGradient id="paint17_linear_485_8372" x1="115.845" y1="69.9994" x2="120.026" y2="79.0505" gradientUnits="userSpaceOnUse">
<stop stop-color="#FEBBBA"/>
<stop offset="1" stop-color="#FF928E"/>
</linearGradient>
<linearGradient id="paint18_linear_485_8372" x1="105.684" y1="94.7637" x2="125.018" y2="59.4676" gradientUnits="userSpaceOnUse">
<stop stop-color="#FEBBBA"/>
<stop offset="1" stop-color="#FF928E"/>
</linearGradient>
</defs>
</svg>
