<svg width="102" height="109" viewBox="0 0 102 109" fill="none" xmlns="http://www.w3.org/2000/svg">
<path d="M50.142 3.4259C50.078 3.09098 49.7524 2.87264 49.4184 2.94059L46.5627 3.52133L7.61133 9.5873L15.5859 63.5946L20.0232 66.5587L59.7202 59.8857C60.3668 59.777 60.7975 59.1576 60.6745 58.5137L50.142 3.4259Z" fill="#EE4961"/>
<path d="M46.074 0.893036L49.6165 3.50292L60.1267 59.0637L20.0069 66.0948L15.8359 63.2295L46.074 0.893036Z" fill="#263238"/>
<path d="M55.0672 56.2675L15.5853 63.5943L5.58876 9.72623C5.45739 9.01804 5.91824 8.33552 6.62402 8.19267L45.7505 0.277552C46.1549 0.19571 46.5469 0.463282 46.6182 0.869472L56.0895 54.7946C56.2103 55.4829 55.7543 56.14 55.0672 56.2675Z" fill="#EE4961"/>
<path d="M27.5198 62.6263L21.5254 63.7978C22.6253 66.3887 23.3126 69.2924 23.5603 72.0962C24.5161 70.9181 25.1313 69.4667 25.3128 67.9606C26.1702 69.2402 27.1257 70.4542 28.1682 71.5879C28.5399 68.5009 28.3687 65.618 27.5198 62.6263Z" fill="#EE4961"/>
<path d="M48.3086 3.60983L57.9345 55.4143" stroke="#EE4961" stroke-opacity="0.5" stroke-width="0.5" stroke-miterlimit="10" stroke-linecap="round"/>
<path d="M29.6074 62.7795L54.9579 58.1858" stroke="#EE4961" stroke-opacity="0.5" stroke-width="0.5" stroke-miterlimit="10" stroke-linecap="round"/>
<path d="M50.4794 22.8493C46.4434 36.5251 36.7042 52.1255 13.2461 50.9849L15.586 63.5943L55.068 56.2675C55.755 56.14 56.211 55.4829 56.0902 54.7946L50.4794 22.8493Z" fill="#FFBF9D" fill-opacity="0.75"/>
<path opacity="0.5" d="M27.391 3.99185L6.62402 8.19267C5.91824 8.33552 5.45739 9.01804 5.58876 9.72623L11.6155 42.2015C29.0149 33.3239 29.1103 14.8805 27.391 3.99185Z" fill="#FFBF9D" fill-opacity="0.2"/>
<path d="M24.3481 19.5723L21.4872 20.1546C21.39 20.1745 21.3148 20.2515 21.2973 20.3494L21.1049 21.4336C21.0877 21.5314 21.0122 21.6084 20.9149 21.6284L19.4599 21.9243C19.2899 21.959 19.1398 21.8084 19.1751 21.6383L20.7322 14.143C20.7519 14.0485 20.8262 13.9745 20.9207 13.9551L22.5826 13.6169C22.678 13.5976 22.7759 13.6371 22.8305 13.7178L27.1241 20.0226C27.2213 20.1655 27.1419 20.3612 26.9725 20.3956L25.4419 20.7073C25.3441 20.7272 25.2441 20.6849 25.1901 20.601L24.5993 19.6793C24.5459 19.5947 24.4459 19.5524 24.3481 19.5723ZM23.4545 17.8869L22.4349 16.2872C22.3162 16.1012 22.0308 16.1582 21.9928 16.3757L21.6657 18.2496C21.6364 18.4175 21.7853 18.5621 21.952 18.528L23.2986 18.2541C23.465 18.22 23.5457 18.03 23.4545 17.8869Z" fill="white"/>
<path d="M29.9088 16.0613L30.0561 16.7852C30.0827 16.9159 29.9982 17.0437 29.8674 17.0703L27.5565 17.5405C27.4257 17.5671 27.298 17.4825 27.2714 17.3517L27.124 16.6278C27.0974 16.4971 27.182 16.3693 27.3128 16.3427L29.6237 15.8725C29.7544 15.846 29.8819 15.9305 29.9088 16.0613Z" fill="white"/>
<path d="M36.5118 11.0291L36.7023 11.9659C36.7138 12.0223 36.7048 12.0809 36.677 12.1311L34.0133 16.9467C33.9134 17.1273 34.071 17.3418 34.273 17.3007L37.4742 16.6493C37.605 16.6227 37.7328 16.7073 37.7593 16.838L37.9771 17.9092C38.0037 18.04 37.9191 18.1677 37.7883 18.1943L31.7359 19.4259C31.6052 19.4524 31.4774 19.3679 31.4509 19.2371L31.2624 18.3106C31.2509 18.2544 31.26 18.1958 31.2875 18.1457L33.9499 13.3191C34.0496 13.1385 33.8919 12.9244 33.6899 12.9655L30.6877 13.5764C30.5569 13.603 30.4292 13.5184 30.4026 13.3877L30.1846 12.3165C30.158 12.1857 30.2426 12.058 30.3733 12.0314L36.2258 10.8403C36.3575 10.8137 36.4852 10.8983 36.5118 11.0291Z" fill="white"/>
<path d="M10.0645 103.553H95.6682" stroke="#EE4961" stroke-width="0.5" stroke-miterlimit="10" stroke-linecap="round" stroke-linejoin="round"/>
<path d="M22.6895 95.6382C22.6895 95.6382 24.2837 99.7642 22.6895 102.515H43.962V95.6382H22.6895Z" fill="white"/>
<path d="M42.8872 102.409L41.7191 99.4906C41.2313 98.2717 40.0505 97.4729 38.738 97.4729H23.176C23.0721 96.8716 22.8836 96.2815 22.5723 95.744H43.4716L42.8872 102.409Z" fill="#DEDCE2"/>
<path d="M22.7884 94.4556H59.5949C62.107 94.4556 64.1437 96.492 64.1437 99.0043C64.1437 101.516 62.1073 103.553 59.5949 103.553H22.7884C22.2526 103.553 21.8184 103.119 21.8184 102.583V102.543C21.8184 102.007 22.2526 101.573 22.7884 101.573H39.3383C40.768 101.573 41.9267 100.414 41.9267 98.9841C41.9267 97.5544 40.768 96.3957 39.3383 96.3957H22.7884C22.2526 96.3957 21.8184 95.9614 21.8184 95.4257C21.8187 94.8899 22.2529 94.4556 22.7884 94.4556Z" fill="#263238"/>
<path d="M23.5176 98.1461H31.8461" stroke="#EE4961" stroke-opacity="0.5" stroke-width="0.5" stroke-miterlimit="10" stroke-linecap="round"/>
<path d="M33.8555 98.1461H35.466" stroke="#EE4961" stroke-opacity="0.5" stroke-width="0.5" stroke-miterlimit="10" stroke-linecap="round"/>
<path d="M23.5176 99.8623H34.6608" stroke="#EE4961" stroke-opacity="0.5" stroke-width="0.5" stroke-miterlimit="10" stroke-linecap="round"/>
<path d="M59.5949 94.4556H22.7884C22.2526 94.4556 21.8184 94.8899 21.8184 95.4257C21.8184 95.6325 21.8842 95.8231 21.9944 95.9804C22.1699 95.7301 22.4595 95.5652 22.7884 95.5652H59.5949C61.9188 95.5652 63.8323 97.3089 64.1065 99.5588C64.1286 99.3767 64.1437 99.1922 64.1437 99.0041C64.1437 96.492 62.1073 94.4556 59.5949 94.4556Z" fill="#FFBF9D"/>
<path d="M75.077 86.5408C75.077 86.5408 73.4827 90.6668 75.077 93.4177H53.8047V86.5408H75.077Z" fill="white"/>
<path d="M54.8793 93.3117L56.0474 90.3934C56.5352 89.1749 57.7157 88.3758 59.0285 88.3758H74.5905C74.6941 87.7745 74.8829 87.1844 75.1942 86.6468H54.2949L54.8793 93.3117Z" fill="#DEDCE2"/>
<path d="M74.9786 85.3585H38.1718C35.6597 85.3585 33.623 87.3949 33.623 89.9072C33.623 92.4193 35.6594 94.4559 38.1718 94.4559H74.9783C75.5141 94.4559 75.9483 94.0217 75.9483 93.4859V93.4451C75.9483 92.9094 75.5141 92.4751 74.9783 92.4751H58.4284C56.9988 92.4751 55.84 91.3164 55.84 89.8867C55.84 88.457 56.9988 87.2982 58.4284 87.2982H74.9783C75.5141 87.2982 75.9483 86.864 75.9483 86.3282C75.9483 85.7925 75.5141 85.3585 74.9786 85.3585Z" fill="#263238"/>
<path d="M74.2488 89.0489H65.9199" stroke="#EE4961" stroke-opacity="0.5" stroke-width="0.5" stroke-miterlimit="10" stroke-linecap="round"/>
<path d="M63.9116 89.0489H62.3008" stroke="#EE4961" stroke-opacity="0.5" stroke-width="0.5" stroke-miterlimit="10" stroke-linecap="round"/>
<path d="M74.2487 90.7652H63.1055" stroke="#EE4961" stroke-opacity="0.5" stroke-width="0.5" stroke-miterlimit="10" stroke-linecap="round"/>
<path opacity="0.3" d="M38.1715 85.3585H74.978C75.5138 85.3585 75.948 85.7928 75.948 86.3285C75.948 86.5354 75.8822 86.7259 75.772 86.8833C75.5965 86.6329 75.3069 86.4683 74.978 86.4683H38.1715C35.8476 86.4683 33.9341 88.2121 33.6602 90.462C33.6378 90.2799 33.623 90.0954 33.623 89.9072C33.623 87.3949 35.6594 85.3585 38.1715 85.3585Z" fill="#263238"/>
<path d="M68.2628 77.4437C68.2628 77.4437 66.6686 81.5696 68.2628 84.3205H46.9902V77.4437H68.2628Z" fill="white"/>
<path d="M48.1019 84.0276L49.2701 81.1093C49.7578 79.8905 50.9383 79.0917 52.2511 79.0917H67.8132C67.9168 78.4904 68.1055 77.9003 68.4169 77.3627H47.5176L48.1019 84.0276Z" fill="#DEDCE2"/>
<path d="M68.1642 76.261H31.3573C28.8453 76.261 26.8086 78.2974 26.8086 80.8098C26.8086 83.3218 28.845 85.3585 31.3573 85.3585H68.1639C68.6996 85.3585 69.1339 84.9242 69.1339 84.3885V84.348C69.1339 83.8123 68.6996 83.378 68.1639 83.378H51.614C50.1843 83.378 49.0255 82.2192 49.0255 80.7895C49.0255 79.3599 50.1843 78.2011 51.614 78.2011H68.1639C68.6996 78.2011 69.1339 77.7668 69.1339 77.2311C69.1339 76.6953 68.6996 76.261 68.1642 76.261Z" fill="#263238"/>
<path d="M67.4343 79.9515H59.1055" stroke="#EE4961" stroke-opacity="0.5" stroke-width="0.5" stroke-miterlimit="10" stroke-linecap="round"/>
<path d="M57.0972 79.9515H55.4863" stroke="#EE4961" stroke-opacity="0.5" stroke-width="0.5" stroke-miterlimit="10" stroke-linecap="round"/>
<path d="M67.4342 81.6681H56.291" stroke="#EE4961" stroke-opacity="0.5" stroke-width="0.5" stroke-miterlimit="10" stroke-linecap="round"/>
<path d="M69.1339 84.348C69.1339 84.1577 69.0771 83.9817 68.9823 83.8319H32.2238C29.7117 83.8319 27.675 81.7955 27.675 79.2832C27.675 78.78 27.7611 78.2977 27.9118 77.8453C27.226 78.6417 26.8086 79.6764 26.8086 80.8098C26.8086 83.3218 28.845 85.3582 31.3573 85.3582H68.1639C68.6996 85.3582 69.1339 84.9239 69.1339 84.3882V84.348Z" fill="#263238"/>
<path d="M30.7714 77.1631C30.3555 77.222 29.7247 77.3863 29.4453 77.8453" stroke="white" stroke-width="0.5" stroke-miterlimit="10" stroke-linecap="round"/>
<path d="M35.9701 77.1302H31.7363" stroke="white" stroke-width="0.5" stroke-miterlimit="10" stroke-linecap="round"/>
<path d="M70.5797 79.6096C71.791 85.6493 74.9835 97.6783 74.9255 97.9033C74.8998 98.0039 74.7062 99.2593 74.4936 100.652C74.3786 101.407 74.2578 102.202 74.156 102.874C74.0086 103.847 74.5489 104.793 75.4615 105.161C78.5945 106.426 85.4339 109.135 86.2158 108.994C87.2338 108.811 87.1613 107.376 85.7256 106.099C85.423 105.829 84.9875 105.394 84.488 104.877C82.6277 102.948 79.8889 99.8636 79.8889 99.8636C79.8889 99.8636 79.1224 77.1018 78.8578 74.9839C78.5909 72.8657 76.9576 70.5052 74.2209 70.5074C71.3839 70.5089 69.3681 73.5699 70.5797 79.6096Z" fill="#FFBF9D"/>
<path d="M74.1223 103.1C73.9952 103.941 74.4615 104.757 75.2497 105.075C78.2739 106.299 85.4162 109.139 86.2159 108.995C87.234 108.811 87.1615 107.377 85.7258 106.099C85.4232 105.829 84.9877 105.394 84.4882 104.878C85.3395 106.973 80.1158 104.234 79.0054 103.248C77.2695 101.703 75.6372 100.986 74.4938 100.653C74.3658 101.493 74.2308 102.384 74.1223 103.1Z" fill="#EE4961"/>
<path d="M50.554 65.2994C50.554 65.2994 48.3753 68.1185 51.3069 73.1408C53.7932 77.3999 69.7563 76.8143 69.7563 76.8143L74.3836 96.3604L79.7613 96.1816C79.7613 96.1816 80.2732 72.2133 77.4132 68.2511C75.5263 65.637 64.6408 65.8726 58.4637 65.5485C53.5903 65.293 50.554 65.2994 50.554 65.2994Z" fill="#EE4961"/>
<path opacity="0.45" d="M63.6179 66.8139C60.6272 65.2982 49.0425 65.2982 49.0425 65.2982L40.4629 65.239C40.7414 64.5719 39.4177 68.4876 39.9061 67.7087C40.1933 67.2503 39.7774 66.752 39.9556 66.4032L39.168 66.1151C39.168 66.1151 42.8789 68.7978 46.1215 74.6173C46.9886 76.1732 48.125 75.1688 50.6373 75.6015L52.0591 75.7688L54.4567 75.741C58.8094 76.2608 63.1752 76.5253 66.335 76.8279C66.335 76.8279 65.5072 67.7716 63.6179 66.8139ZM45.641 70.2531L49.3209 74.7601C47.0909 73.7871 45.632 72.41 45.641 70.2531Z" fill="#EE4961"/>
<path d="M35.4917 48.2412C36.1041 46.0892 32.4116 43.5662 34.8179 38.7521C35.4262 37.535 36.7987 36.9663 37.638 36.2449C38.2785 35.694 38.3377 34.4697 38.9429 32.9573C40.0111 30.2885 43.2332 30.6367 43.7855 27.7689C44.0507 26.3924 45.5459 21.9539 54.0342 21.905C58.7251 21.8778 60.0968 28.2159 56.5707 31.5143C56.5707 31.5143 54.5576 32.6456 55.552 35.697C55.8951 36.7495 58.0299 37.2493 57.7418 38.6892C56.8654 43.0704 61.3562 39.3219 57.2532 48.5704L35.4917 48.2412Z" fill="#263238"/>
<path d="M45.8274 38.8484C43.7103 38.9592 42.1988 38.4618 42.6419 36.7078C43.0577 35.0619 45.3146 34.6986 45.6591 31.9395C46.0037 29.1805 48.5701 28.9059 49.541 27.7438C51.0713 25.9119 50.9919 24.6405 54.0659 26.0409C57.4387 27.5774 55.8646 31.2498 55.8646 31.2498L55.2615 32.5523C54.5742 34.0858 53.2251 35.938 54.7191 37.4432C55.3201 38.0487 54.3667 40.3847 53.9934 40.767C53.1222 41.6591 45.8274 38.8484 45.8274 38.8484Z" fill="#263238"/>
<path d="M52.6375 45.7612C54.0886 48.1956 55.2498 50.6321 56.2917 52.8727C58.8633 58.4014 60.1283 63.4122 63.7294 63.1446C68.1141 62.819 66.5005 58.6019 63.1785 50.5131L62.3816 49.2828C62.3816 49.2828 59.8348 45.0013 57.3958 40.7081C55.193 36.8325 50.0584 41.4251 52.6375 45.7612Z" fill="#FFBF9D"/>
<path d="M58.1123 56.1219C57.8357 55.584 56.6522 53.5727 56.2916 52.8724C55.7045 51.7287 53.512 53.4193 52.9542 52.3309C52.7171 51.8649 52.4969 51.4315 52.3064 51.0559C52.1868 50.8218 52.0799 50.6083 51.9875 50.4235C50.3663 47.1975 44.9626 39.3195 50.2105 38.7681C50.2126 38.7681 50.1404 38.6092 50.1425 38.6092L50.2105 38.7681C50.6967 38.7185 54.6946 38.9266 55.1159 38.9765C55.124 38.9765 55.1304 38.9786 55.1385 38.9783C55.2623 38.9855 55.3789 39.0115 55.4967 39.0269C55.5317 39.0308 55.565 39.0344 55.5979 39.0405C55.6577 39.0504 55.7156 39.058 55.7733 39.0701C55.8437 39.0819 55.9138 39.0979 55.982 39.1136C56.0358 39.1256 56.0895 39.1374 56.1412 39.1534C56.168 39.1595 56.1928 39.1655 56.2155 39.1712C56.2671 39.1873 56.3187 39.2033 56.3686 39.2196C56.4181 39.2335 56.4658 39.2516 56.5114 39.27C56.5588 39.2842 56.6044 39.3023 56.6522 39.3225C56.708 39.3449 56.7639 39.3669 56.8155 39.3932C56.8651 39.4135 56.9107 39.4358 56.9584 39.46C56.9626 39.46 56.9647 39.4621 56.9665 39.4642C57.0288 39.4947 57.0888 39.5249 57.1468 39.5596C57.1985 39.5859 57.2483 39.6164 57.296 39.6451C57.3395 39.6717 57.3809 39.6979 57.4226 39.7266C57.5657 39.8202 57.7046 39.9223 57.8438 40.0365C57.9021 40.0833 57.958 40.1304 58.0121 40.1814C58.1887 40.3367 58.3633 40.5106 58.5339 40.7009C58.5901 40.7622 58.6463 40.8256 58.7006 40.8911C58.7444 40.9404 58.7861 40.9914 58.8278 41.0427C58.8966 41.1267 58.9655 41.2149 59.0322 41.3049C59.0781 41.3623 59.1219 41.4239 59.1678 41.4852C59.2367 41.5794 59.3055 41.6757 59.3723 41.7763C59.4245 41.8521 59.4789 41.93 59.5311 42.0122C59.5855 42.0964 59.642 42.1825 59.6981 42.2707C59.7543 42.3589 59.809 42.4492 59.8654 42.5416C59.995 42.7509 60.1227 42.9704 60.2526 43.2002C60.2946 43.2763 60.3384 43.3521 60.3803 43.43C60.4389 43.5348 60.4975 43.6415 60.5561 43.7502C60.6126 43.8529 60.6694 43.9576 60.7237 44.0642C60.7886 44.1832 60.8515 44.3065 60.9167 44.4318C61.0508 44.6906 61.1849 44.9512 61.3171 45.214C62.8498 48.2119 63.9301 50.444 64.7131 52.0851C65.0378 52.7652 58.5484 56.9681 58.1123 56.1219Z" fill="#FE7062"/>
<mask id="mask0_484_7905" style="mask-type:luminance" maskUnits="userSpaceOnUse" x="47" y="38" width="18" height="19">
<path d="M58.1123 56.1219C57.8357 55.584 56.6522 53.5727 56.2916 52.8724C55.7045 51.7287 53.512 53.4193 52.9542 52.3309C52.7171 51.8649 52.4969 51.4315 52.3064 51.0559C52.1868 50.8218 52.0799 50.6083 51.9875 50.4235C50.3663 47.1975 44.9626 39.3195 50.2105 38.7681C50.2126 38.7681 50.1404 38.6092 50.1425 38.6092L50.2105 38.7681C50.6967 38.7185 54.6946 38.9266 55.1159 38.9765C55.124 38.9765 55.1304 38.9786 55.1385 38.9783C55.2623 38.9855 55.3789 39.0115 55.4967 39.0269C55.5317 39.0308 55.565 39.0344 55.5979 39.0405C55.6577 39.0504 55.7156 39.058 55.7733 39.0701C55.8437 39.0819 55.9138 39.0979 55.982 39.1136C56.0358 39.1256 56.0895 39.1374 56.1412 39.1534C56.168 39.1595 56.1928 39.1655 56.2155 39.1712C56.2671 39.1873 56.3187 39.2033 56.3686 39.2196C56.4181 39.2335 56.4658 39.2516 56.5114 39.27C56.5588 39.2842 56.6044 39.3023 56.6522 39.3225C56.708 39.3449 56.7639 39.3669 56.8155 39.3932C56.8651 39.4135 56.9107 39.4358 56.9584 39.46C56.9626 39.46 56.9647 39.4621 56.9665 39.4642C57.0288 39.4947 57.0888 39.5249 57.1468 39.5596C57.1985 39.5859 57.2483 39.6164 57.296 39.6451C57.3395 39.6717 57.3809 39.6979 57.4226 39.7266C57.5657 39.8202 57.7046 39.9223 57.8438 40.0365C57.9021 40.0833 57.958 40.1304 58.0121 40.1814C58.1887 40.3367 58.3633 40.5106 58.5339 40.7009C58.5901 40.7622 58.6463 40.8256 58.7006 40.8911C58.7444 40.9404 58.7861 40.9914 58.8278 41.0427C58.8966 41.1267 58.9655 41.2149 59.0322 41.3049C59.0781 41.3623 59.1219 41.4239 59.1678 41.4852C59.2367 41.5794 59.3055 41.6757 59.3723 41.7763C59.4245 41.8521 59.4789 41.93 59.5311 42.0122C59.5855 42.0964 59.642 42.1825 59.6981 42.2707C59.7543 42.3589 59.809 42.4492 59.8654 42.5416C59.995 42.7509 60.1227 42.9704 60.2526 43.2002C60.2946 43.2763 60.3384 43.3521 60.3803 43.43C60.4389 43.5348 60.4975 43.6415 60.5561 43.7502C60.6126 43.8529 60.6694 43.9576 60.7237 44.0642C60.7886 44.1832 60.8515 44.3065 60.9167 44.4318C61.0508 44.6906 61.1849 44.9512 61.3171 45.214C62.8498 48.2119 63.9301 50.444 64.7131 52.0851C65.0378 52.7652 58.5484 56.9681 58.1123 56.1219Z" fill="white"/>
</mask>
<g mask="url(#mask0_484_7905)">
<path d="M48.3457 55.0975C48.3457 55.0975 51.1202 51.5457 54.7605 52.7431C58.4008 53.9405 58.2498 48.9219 61.7871 49.5507C65.3244 50.1794 64.1029 46.3111 67.5849 45.4232C71.067 44.5354 71.0416 42.4567 71.0416 42.4567" stroke="white" stroke-width="0.5" stroke-miterlimit="10"/>
</g>
<path d="M56.852 44.0368C56.6853 45.4438 58.8099 47.0081 57.7958 52.0488C57.5043 53.4978 55.846 55.1214 55.859 55.4913L54.4647 65.4984C52.0807 65.9384 49.1761 66.0142 46.9389 66.4618C46.1503 66.6173 45.3703 66.7759 44.6029 66.9347C43.5154 67.1585 43.4595 66.8776 42.4158 67.102C39.7476 67.6749 38.8776 65.788 36.5268 66.3546C36.682 64.1629 36.9291 61.0315 37.5361 54.9453C37.8701 51.5967 36.0741 50.576 36.4963 47.6127C36.7926 45.5292 37.7227 44.3974 38.0471 42.9716C38.3841 41.4985 38.9217 40.6634 39.2765 40.3092C40.5126 39.0779 40.7388 38.666 43.7769 38.5026C43.8539 38.4984 46.5327 38.4504 46.9476 38.5395C47.0331 38.5573 46.8881 38.4319 47.1071 38.4845C47.5253 38.5814 46.9842 38.4531 47.4553 38.5721C48.6322 38.8711 50.1848 39.2745 53.3953 39.5228C53.6094 39.5385 53.8157 39.5569 54.0114 39.575L54.0135 39.5747C54.0703 39.5798 54.1295 39.5865 54.1841 39.5919C54.2409 39.5971 54.2959 39.6022 54.3508 39.6097C54.433 39.6176 54.5154 39.6276 54.5937 39.6381C54.6737 39.6463 54.7522 39.6569 54.8283 39.6677C54.9805 39.6874 55.1291 39.7094 55.2716 39.7345C55.5015 39.7749 56.0472 39.9072 56.1097 39.9238C56.2311 39.9619 56.3465 40.0008 56.4561 40.0428C56.5047 40.0612 56.9049 43.585 56.852 44.0368Z" fill="#FE7062"/>
<path d="M55.8594 55.4916C55.8769 55.122 56.7901 54.3724 57.1169 52.2961C57.5941 49.2638 56.5365 49.9055 56.4214 47.7779" stroke="#FE7062" stroke-width="0.5" stroke-miterlimit="10" stroke-linecap="round" stroke-linejoin="round"/>
<mask id="mask1_484_7905" style="mask-type:luminance" maskUnits="userSpaceOnUse" x="36" y="38" width="23" height="30">
<path d="M56.852 44.0368C56.6853 45.4438 58.8099 47.0081 57.7958 52.0488C57.5043 53.4978 55.846 55.1214 55.859 55.4913L54.4647 65.4984C52.0807 65.9384 49.1761 66.0142 46.9389 66.4618C46.1503 66.6173 45.3703 66.7759 44.6029 66.9347C43.5154 67.1585 43.4595 66.8776 42.4158 67.102C39.7476 67.6749 38.8776 65.788 36.5268 66.3546C36.682 64.163 36.9291 61.0315 37.5361 54.9453C37.8701 51.5967 36.0741 50.576 36.4963 47.6127C36.7926 45.5293 37.7227 44.3974 38.0471 42.9716C38.3841 41.4985 38.9217 40.6634 39.2765 40.3092C40.5126 39.0779 40.7388 38.666 43.7769 38.5026C43.8539 38.4984 46.5327 38.4504 46.9476 38.5395C47.0331 38.5573 45.906 38.1934 46.125 38.2456C46.5432 38.3426 46.9842 38.4531 47.4553 38.5721C48.6322 38.8711 50.1848 39.2745 53.3953 39.5228C53.6094 39.5385 53.8157 39.5569 54.0114 39.575L54.0135 39.5747C54.0703 39.5799 54.1295 39.5865 54.1841 39.5919C54.2409 39.5971 54.2959 39.6022 54.3508 39.6097C54.433 39.6176 54.5154 39.6276 54.5937 39.6381C54.6737 39.6463 54.7522 39.6569 54.8283 39.6677C54.9805 39.6874 55.1291 39.7094 55.2716 39.7345C55.5015 39.7749 56.0472 39.9072 56.1097 39.9238C56.2311 39.9619 56.3465 40.0008 56.4561 40.0428C56.5047 40.0612 56.9049 43.585 56.852 44.0368Z" fill="white"/>
</mask>
<g mask="url(#mask1_484_7905)">
<path d="M36 45.4939C36 45.4939 43.0529 44.1793 44.9347 45.22C50.6271 48.368 49.6999 43.4128 52.9567 44.9298C55.8586 46.2815 54.9979 44.4378 58.4815 45.3206C61.9647 46.203 63.2132 41.6618 63.2132 41.6618" stroke="white" stroke-width="0.5" stroke-miterlimit="10"/>
<path d="M33.3223 53.8044C33.3223 53.8044 37.456 52.0084 40.0825 54.7988C42.709 57.5893 44.9731 53.1076 47.7808 55.3494C50.5885 57.5911 51.3625 53.6087 54.8458 54.4914C58.3291 55.3739 59.2994 53.5356 59.2994 53.5356" stroke="white" stroke-width="0.5" stroke-miterlimit="10"/>
<path d="M31.0547 59.8631C31.0547 59.8631 35.1885 58.0671 37.815 60.8576C40.4414 63.648 42.7055 59.1664 45.5132 61.4081C48.3209 63.6498 49.095 59.6677 52.5782 60.5501C56.0615 61.4326 57.0321 59.5943 57.0321 59.5943" stroke="white" stroke-width="0.5" stroke-miterlimit="10"/>
</g>
<path d="M42.7201 45.4939L40.0697 66.3887L36.4844 65.8907L37.9717 50.7988L42.7201 45.4939Z" fill="#FE7062"/>
<path d="M43.3974 44.6202C42.4413 47.2881 41.7699 49.9022 41.1777 52.3013C39.7166 58.2211 39.4379 63.3817 35.8528 63.8111C31.4871 64.3342 32.3164 60.1059 34.8493 51.6248C34.8493 51.6248 45.0952 39.8692 43.3974 44.6202Z" fill="#FFBF9D"/>
<path d="M43.8902 46.1181C43.7465 47.0009 43.5296 47.8794 43.2328 48.7111C42.4784 50.8191 41.8991 52.8923 41.3993 54.8535C41.2991 55.2422 41.2731 54.3045 41.1789 54.6841C41.1224 54.9124 40.92 55.073 40.6851 55.0743C39.7205 55.0797 38.6363 55.0474 37.5367 54.9459C35.7157 54.778 34.4914 54.5542 33.0723 53.8333C33.0732 53.8312 33.0846 53.7237 33.3866 52.8709C33.9958 51.1392 35.4206 48.2503 36.6827 45.1798C36.9729 44.4738 37.2625 43.5071 37.5183 42.8572C38.7538 39.7097 39.9763 38.7499 43.2195 38.5274C43.221 38.5268 44.5634 41.9656 43.8902 46.1181Z" fill="#FE7062"/>
<path d="M65.6533 61.5522C67.0243 59.0302 64.1611 55.7791 62.7015 54.107C61.6158 52.863 58.7423 49.8315 57.3407 48.3602C56.859 47.8522 56.5507 47.5303 56.5507 47.5303C56.5507 47.5303 55.8778 48.8232 53.9121 49.1523C54.0344 49.3592 54.6689 49.5625 54.8559 49.9388C56.2173 52.667 58.6124 59.353 59.9201 61.1638C61.4081 63.2222 64.2985 64.0464 65.6533 61.5522Z" fill="#FFBF9D"/>
<path d="M61.6945 42.226C61.3188 41.9672 60.6106 41.9487 60.6106 41.9487C60.0329 42.1668 59.2377 42.8919 58.3305 43.883C56.7957 45.5603 55.9326 47.1933 55.9326 47.1933C55.9326 47.1933 54.4275 46.952 52.2618 46.6427C50.0962 46.3335 47.3939 46.3721 47.3939 46.3721L46.9844 47.5454L55.8777 48.648L61.6945 42.226Z" fill="#263238" stroke="#263238" stroke-width="0.5" stroke-miterlimit="10" stroke-linecap="round" stroke-linejoin="round"/>
<path d="M55.364 47.5991L46.4532 46.9426L42.9805 56.6268L51.5144 57.2631L55.364 47.5991Z" fill="#263238" stroke="#263238" stroke-width="0.5" stroke-miterlimit="10" stroke-linecap="round" stroke-linejoin="round"/>
<path d="M62.0804 41.6039L56.3829 47.4877L52.5508 56.6679L58.0704 51.3835L62.0804 41.6039Z" fill="#263238" stroke="#263238" stroke-width="0.5" stroke-miterlimit="10" stroke-linecap="round" stroke-linejoin="round"/>
<path d="M56.3816 47.4877L55.3633 47.5992L51.5137 57.2632L52.5495 56.6679L56.3816 47.4877Z" fill="#263238" stroke="#263238" stroke-width="0.5" stroke-miterlimit="10" stroke-linecap="round" stroke-linejoin="round"/>
<path d="M58.1302 44.5764C57.2973 45.4278 56.4668 46.8931 56.4668 46.8931" stroke="#263238" stroke-width="0.5" stroke-miterlimit="10" stroke-linecap="round" stroke-linejoin="round"/>
<path d="M55.2556 47.3573C54.4886 47.0269 52.3145 47.0498 52.3145 47.0498" stroke="#263238" stroke-width="0.5" stroke-miterlimit="10" stroke-linecap="round" stroke-linejoin="round"/>
<path d="M46.2168 53.1085C47.2125 52.2294 47.9817 51.208 48.4818 50.4917C48.9819 49.7754 50.4309 48.6619 50.5982 48.7262C50.7655 48.7905 50.9642 49.1789 50.2621 50.0882C49.8477 50.6252 49.7671 50.9586 49.7671 50.9586C49.7671 50.9586 50.2047 51.0528 50.7296 50.8653C51.2545 50.678 53.5083 50.084 53.778 50.0034C54.0477 49.9224 54.1748 50.2833 53.794 50.5282C54.4366 50.3002 54.6945 50.6575 54.1688 51.1365C54.1688 51.1365 54.7118 51.1745 54.1956 51.7423C53.6795 52.31 52.7639 52.9929 52.7639 52.9929C52.7639 52.9929 53.9232 52.3985 54.0875 52.3895C54.2518 52.3801 54.3883 52.6178 54.0102 52.9249C53.6324 53.232 50.8993 54.9474 50.4161 55.1963C49.8254 55.5007 48.6056 55.9606 48.6056 55.9606C48.6056 55.9606 46.2775 54.5892 46.2168 53.1085Z" fill="#FFBF9D"/>
<path d="M36.0814 64.0325C38.9849 63.6725 48.8618 55.8921 48.985 55.8132C48.985 55.8132 48.1708 53.4389 46.2159 53.1085C46.2159 53.1085 39.8646 55.0471 37.8557 55.607C35.8471 56.1684 33.5374 58.0643 32.9364 59.9023C32.5287 61.1511 33.2079 64.39 36.0814 64.0325Z" fill="#FFBF9D"/>
<path d="M49.2168 49.6987C49.806 49.1623 50.4852 48.6836 50.5963 48.7265C50.7636 48.7909 50.9624 49.1792 50.2602 50.0885C49.8459 50.6255 49.7652 50.9589 49.7652 50.9589C49.7652 50.9589 50.2028 51.0531 50.7277 50.8656C51.2526 50.6783 53.5064 50.0843 53.7761 50.0037C54.0458 49.9227 54.1729 50.2836 53.7921 50.5286C54.4348 50.3005 54.6927 50.6578 54.1669 51.1368C54.1669 51.1368 54.7099 51.1748 54.1938 51.7426C53.6776 52.3104 52.762 52.9932 52.762 52.9932C52.762 52.9932 53.9214 52.3988 54.0856 52.3898C54.2499 52.3804 54.3864 52.6181 54.0083 52.9252C53.8957 53.0167 53.5731 53.2339 53.1636 53.4996" stroke="#263238" stroke-width="0.5" stroke-miterlimit="10" stroke-linecap="round" stroke-linejoin="round"/>
<path d="M52.7636 52.9929C52.3963 53.1883 52.127 53.3601 52.127 53.3601" stroke="#263238" stroke-width="0.5" stroke-miterlimit="10" stroke-linecap="round" stroke-linejoin="round"/>
<path d="M54.169 51.1365L51.7461 52.545" stroke="#263238" stroke-width="0.5" stroke-miterlimit="10" stroke-linecap="round" stroke-linejoin="round"/>
<path d="M53.7935 50.5283L51.4844 51.6568" stroke="#263238" stroke-width="0.5" stroke-miterlimit="10" stroke-linecap="round" stroke-linejoin="round"/>
<path d="M59.3876 49.5084C59.1421 49.0635 58.1416 49.721 58.3614 50.209C58.5819 50.6973 59.7089 50.0906 59.3876 49.5084Z" fill="#FFBF9D" stroke="#263238" stroke-width="0.5" stroke-miterlimit="10"/>
<path d="M59.6894 48.9379C59.6145 48.4354 58.4473 48.702 58.4832 49.2363C58.5192 49.7708 59.7873 49.5957 59.6894 48.9379Z" fill="#FFBF9D" stroke="#263238" stroke-width="0.5" stroke-miterlimit="10"/>
<path d="M60.1799 48.0736C60.108 47.5094 58.8423 47.8302 58.8716 48.4308C58.9006 49.0312 60.2738 48.812 60.1799 48.0736Z" fill="#FFBF9D" stroke="#263238" stroke-width="0.5" stroke-miterlimit="10"/>
<path d="M60.58 47.4333C60.4326 47.8555 59.031 47.7532 59.2497 46.9619C59.4218 46.3392 60.8373 46.6971 60.58 47.4333Z" fill="#FFBF9D" stroke="#263238" stroke-width="0.5" stroke-miterlimit="10"/>
<path d="M46.3281 38.4721C46.3281 38.4721 46.8458 40.2898 49.2249 41.0062C51.6023 41.7246 52.6055 40.6027 52.6336 39.569C52.6357 39.4962 52.6381 39.4234 52.6381 39.3485C52.6559 38.1982 52.5856 36.9108 52.6671 34.6358C52.6804 34.2794 52.6312 33.8823 52.5309 33.4773C51.9662 31.1356 48.2658 28.016 47.7958 32.0609C47.5449 34.2175 46.3281 38.4721 46.3281 38.4721Z" fill="#FFBF9D"/>
<path d="M52.6388 39.3482C52.6566 38.1979 52.5862 36.9105 52.6677 34.6355C52.681 34.2791 52.6318 33.882 52.5315 33.477C51.2541 33.6135 49.6438 34.2202 49.5768 35.4319C49.4765 37.2412 49.9437 39.273 52.6388 39.3482Z" fill="#F48C93"/>
<path d="M52.1031 37.4208C50.2869 37.2478 47.6981 35.4237 47.295 31.9365C47.0781 30.0596 47.2014 30.1131 47.8008 29.4363C48.4003 28.7595 48.6947 26.9001 49.0674 26.3257C49.8127 25.1769 51.9421 21.995 54.0404 24.6381C56.1152 27.2513 56.5075 25.6223 56.1318 31.0221C56.0971 31.5216 55.7546 32.6181 55.2119 34.0031C54.4327 35.9918 53.7472 37.5776 52.1031 37.4208Z" fill="#FFBF9D"/>
<path d="M48.2329 30.4471C48.4772 28.8108 46.5025 27.1571 45.3041 29.1158C44.2665 30.8116 46.1621 31.7526 47.2949 31.9368L48.2329 30.4471Z" fill="#FFBF9D"/>
<path d="M55.1797 31.0988C55.0734 31.3573 55.1015 31.614 55.2425 31.6717C55.3832 31.7297 55.5835 31.5669 55.6898 31.3084C55.7961 31.0499 55.768 30.7932 55.6273 30.7355C55.4862 30.6775 55.286 30.8403 55.1797 31.0988Z" fill="#263238"/>
<path d="M50.913 32.1123C50.4778 32.784 49.5805 32.9754 48.9092 32.5402C48.2375 32.1051 48.0461 31.2078 48.4812 30.5365C48.9164 29.8648 49.8137 29.6734 50.485 30.1085C51.1564 30.5437 51.3481 31.441 50.913 32.1123Z" fill="#F48C93"/>
<path d="M54.3796 31.19C54.3796 31.19 54.5484 32.9099 54.3594 33.2406C54.1703 33.5709 53.4648 32.9123 53.4648 32.9123" stroke="#263238" stroke-width="0.5" stroke-miterlimit="10" stroke-linecap="round" stroke-linejoin="round"/>
<path d="M55.4001 29.2016C55.4001 29.2016 55.2929 29.0971 55.5397 29.0823C55.7864 29.0675 56.4037 29.1515 56.7413 29.5528C56.7413 29.5528 56.8558 29.6987 56.6027 29.6652C56.4632 29.6465 55.7187 29.4773 55.4001 29.2016Z" fill="#263238"/>
<path d="M53.4148 28.4557C53.4148 28.4557 53.5607 28.4273 53.3596 28.2856C53.1584 28.144 52.5916 27.8876 52.0939 28.035C52.0939 28.035 51.9199 28.093 52.1519 28.1987C52.2799 28.257 52.9996 28.5112 53.4148 28.4557Z" fill="#263238"/>
<path d="M47.5342 30.49C47.5342 30.49 47.3989 28.7045 45.7793 29.5308" stroke="#263238" stroke-width="0.5" stroke-miterlimit="10" stroke-linecap="round" stroke-linejoin="round"/>
<path d="M46.2752 30.5241C46.2752 30.5241 46.1172 29.6111 46.8133 29.3412" stroke="#263238" stroke-width="0.5" stroke-miterlimit="10" stroke-linecap="round" stroke-linejoin="round"/>
<path d="M52.3184 30.2411C52.2121 30.4996 52.2402 30.7563 52.3809 30.814C52.5216 30.872 52.7222 30.7092 52.8282 30.4504C52.9345 30.1919 52.9064 29.9352 52.7656 29.8775C52.6249 29.8198 52.4247 29.9826 52.3184 30.2411Z" fill="#263238"/>
<path d="M56.8877 25.722C56.8877 25.722 55.0292 28.2847 52.4755 28.1395C50.8151 28.045 49.5732 29.6755 48.9312 30.7693C48.7494 31.0795 48.2849 31.0169 48.1889 30.6702C47.6353 28.6704 46.8021 25.7268 51.192 23.4887C52.4999 22.8222 55.0068 24.4237 56.8877 25.722Z" fill="#263238"/>
<path d="M52.8032 25.0971C52.3378 25.1766 51.7955 25.1944 51.1821 25.201C49.5579 25.2191 49.0074 25.7371 48.584 26.2037" stroke="#263238" stroke-width="0.5" stroke-miterlimit="10" stroke-linecap="round" stroke-linejoin="round"/>
<path d="M54.7343 24.4385C54.7343 24.4385 54.3496 24.687 53.6387 24.9014" stroke="#263238" stroke-width="0.5" stroke-miterlimit="10" stroke-linecap="round" stroke-linejoin="round"/>
<path d="M51.6406 23.9317C51.6406 23.9317 50.7503 24.195 49.4931 24.2138C48.366 24.2304 47.7237 24.7568 47.2266 25.811" stroke="#263238" stroke-width="0.5" stroke-miterlimit="10" stroke-linecap="round" stroke-linejoin="round"/>
<path d="M51.8761 33.192C51.8761 33.192 51.6629 34.0363 52.8555 34.3371" stroke="#263238" stroke-width="0.5" stroke-miterlimit="10" stroke-linecap="round" stroke-linejoin="round"/>
<path d="M55.1986 32.7139C54.9078 33.1626 54.9081 33.7289 55.1397 34.1852C55.1636 34.1245 55.1875 34.0647 55.2116 34.0031C55.4904 33.2922 55.7151 32.6592 55.8733 32.1422C55.6142 32.2171 55.4001 32.4031 55.1986 32.7139Z" fill="#F48C93"/>
<path d="M56.8882 79.5734C58.417 85.5406 62.2406 97.3842 62.1947 97.6119C62.1745 97.7137 62.0476 98.9775 61.9087 100.38C61.8244 101.232 61.7359 102.136 61.6653 102.859C61.5834 103.696 62.0869 104.478 62.8823 104.752C65.9585 105.811 73.2627 108.277 74.0551 108.091C75.062 107.854 74.9137 106.425 73.4125 105.226C73.096 104.972 72.6381 104.56 72.1124 104.071C70.1527 102.242 67.2547 99.3073 67.2547 99.3073C67.2547 99.3073 65.2866 76.6181 64.9106 74.5167C64.5322 72.4154 62.7763 70.1447 60.0435 70.2918C57.2105 70.4428 55.3595 73.6062 56.8882 79.5734Z" fill="#FFBF9D"/>
<path d="M61.6524 102.988C61.5781 103.749 62.0339 104.459 62.7562 104.708C65.7536 105.742 73.2513 108.28 74.055 108.091C75.0618 107.854 74.9136 106.425 73.4123 105.226C73.0958 104.972 72.638 104.56 72.1122 104.071C72.1261 106.077 67.7121 103.659 66.5509 102.733C64.7356 101.282 63.0679 100.652 61.9085 100.38C61.8188 101.284 61.7246 102.246 61.6524 102.988Z" fill="#EE4961"/>
<path d="M36.5468 65.9478C36.5468 65.9478 34.1656 70.4385 37.313 75.3285C40.4605 80.2182 55.9183 76.8255 55.9183 76.8255L61.5721 96.0998L66.9329 95.6371C66.9329 95.6371 66.1776 71.6752 63.1123 67.8697C61.0901 65.3589 50.2057 66.742 44.0461 66.1722C39.3727 65.7397 36.5468 65.9478 36.5468 65.9478Z" fill="#EE4961"/>
<path opacity="0.45" d="M56.4523 75.7773C56.5399 75.6003 56.3913 75.3988 56.1968 75.4336C54.1507 75.7966 44.8458 77.4111 40.1482 75.7313C35.9438 74.228 35.8233 68.3106 35.8233 68.3106C35.4726 70.6795 36.0129 73.3093 37.3127 75.3288C40.4602 80.2185 55.918 76.8258 55.918 76.8258C55.918 76.8258 56.1814 76.326 56.4523 75.7773Z" fill="#EE4961"/>
<mask id="mask2_484_7905" style="mask-type:luminance" maskUnits="userSpaceOnUse" x="33" y="38" width="12" height="18">
<path d="M43.8902 46.1181C43.7465 47.0009 43.5296 47.8794 43.2328 48.7111C42.4784 50.8191 41.8991 52.8923 41.3993 54.8535C41.2991 55.2422 41.2731 54.3045 41.1789 54.6841C41.1224 54.9124 40.92 55.073 40.6851 55.0743C39.7205 55.0797 38.6363 55.0474 37.5367 54.9459C35.7157 54.778 34.4914 54.5542 33.0723 53.8333C33.0732 53.8312 33.0846 53.7237 33.3866 52.8709C33.9958 51.1392 35.4206 48.2503 36.6827 45.1798C36.9729 44.4738 37.2625 43.5071 37.5183 42.8572C38.7538 39.7097 39.9763 38.7499 43.2195 38.5274C43.221 38.5268 44.5634 41.9656 43.8902 46.1181Z" fill="white"/>
</mask>
<g mask="url(#mask2_484_7905)">
<path d="M31.3379 44.0425C31.3379 44.0425 35.4717 42.2465 38.0982 45.037C40.7247 47.8274 42.9887 43.3458 45.7964 45.5875C48.6041 47.8293 49.3779 43.8468 52.8614 44.7295C56.3447 45.612 57.315 43.7737 57.315 43.7737" stroke="white" stroke-width="0.5" stroke-miterlimit="10"/>
</g>
<mask id="mask3_484_7905" style="mask-type:luminance" maskUnits="userSpaceOnUse" x="33" y="38" width="12" height="18">
<path d="M43.8902 46.1181C43.7465 47.0009 43.5296 47.8794 43.2328 48.7111C42.4784 50.8191 41.8991 52.8923 41.3993 54.8535C41.2991 55.2422 41.2731 54.3045 41.1789 54.6841C41.1224 54.9124 40.92 55.073 40.6851 55.0743C39.7205 55.0797 38.6363 55.0474 37.5367 54.9459C35.7157 54.778 34.4914 54.5542 33.0723 53.8333C33.0732 53.8312 33.0846 53.7237 33.3866 52.8709C33.9958 51.1392 35.4206 48.2503 36.6827 45.1798C36.9729 44.4738 37.2625 43.5071 37.5183 42.8572C38.7538 39.7097 39.9763 38.7499 43.2195 38.5274C43.221 38.5268 44.5634 41.9656 43.8902 46.1181Z" fill="white"/>
</mask>
<g mask="url(#mask3_484_7905)">
<path d="M26.6133 49.3006C26.6133 49.3006 30.7471 47.5046 33.3735 50.2951C36 53.0856 38.2641 48.6039 41.0718 50.8457C43.8795 53.0874 44.6536 49.1052 48.1368 49.9877C51.6201 50.8701 52.5907 49.0319 52.5907 49.0319" stroke="white" stroke-width="0.5" stroke-miterlimit="10"/>
</g>
<path d="M43.5869 46.9583C42.6308 49.6262 41.9594 52.2403 41.3672 54.6394" stroke="#FE7062" stroke-width="0.5" stroke-miterlimit="10" stroke-linecap="round" stroke-linejoin="round"/>
<path d="M3.59199 52.7265C3.59199 53.7185 2.78776 54.5225 1.79599 54.5225C0.803924 54.5225 0 53.7182 0 52.7265C0 51.7344 0.804226 50.9305 1.79599 50.9305C2.78806 50.9305 3.59199 51.7344 3.59199 52.7265Z" fill="white"/>
<path d="M74.3468 40.7911C74.3468 41.5881 73.7009 42.2341 72.9039 42.2341C72.1069 42.2341 71.4609 41.5881 71.4609 40.7911C71.4609 39.9942 72.1069 39.3482 72.9039 39.3482C73.7009 39.3482 74.3468 39.9942 74.3468 40.7911Z" fill="white"/>
<path d="M91.6714 91.7274C92.4111 91.7274 93.0108 91.1277 93.0108 90.388C93.0108 89.6483 92.4111 89.0486 91.6714 89.0486C90.9317 89.0486 90.332 89.6483 90.332 90.388C90.332 91.1277 90.9317 91.7274 91.6714 91.7274Z" fill="white"/>
<path d="M61.7096 3.99184C61.7096 4.61758 61.2022 5.12494 60.5765 5.12494C59.9507 5.12494 59.4434 4.61758 59.4434 3.99184C59.4434 3.36609 59.9507 2.85873 60.5765 2.85873C61.2022 2.85843 61.7096 3.36579 61.7096 3.99184Z" fill="white"/>
<path d="M101.252 68.3103C101.252 68.9025 100.772 69.3827 100.18 69.3827C99.5876 69.3827 99.1074 68.9025 99.1074 68.3103C99.1074 67.7181 99.5876 67.2379 100.18 67.2379C100.772 67.2379 101.252 67.7181 101.252 68.3103Z" fill="white"/>
<path d="M19.4316 85.938C19.9397 85.938 20.3515 85.5262 20.3515 85.0181C20.3515 84.5101 19.9397 84.0982 19.4316 84.0982C18.9236 84.0982 18.5117 84.5101 18.5117 85.0181C18.5117 85.5262 18.9236 85.938 19.4316 85.938Z" fill="white"/>
</svg>
