<svg width="142" height="119" viewBox="0 0 142 119" fill="none" xmlns="http://www.w3.org/2000/svg">
<path d="M15.1394 91.6085C14.8143 90.787 14.512 89.9556 14.3144 89.076C13.6821 86.2588 14.1416 83.0457 12.9155 80.5443C11.3758 77.4027 7.58333 76.8294 5.00331 78.658C2.4233 80.487 0.94791 84.0649 0.318792 87.6532C-0.0687336 89.863 -0.1815 92.2167 0.431908 94.3468C1.14551 96.8242 2.76858 98.7492 4.53828 100.213C6.50594 101.84 8.80386 103.035 11.1716 102.936C12.226 102.892 13.2887 102.547 14.2264 101.942C14.9659 101.546 15.6222 100.934 16.074 100.139C16.4022 99.6595 16.679 99.127 16.8815 98.5395C17.7225 96.0975 16.9639 92.884 15.1394 91.6085Z" fill="#F5F5FF"/>
<path d="M108.433 91.399H34.5094C33.8157 91.399 33.248 90.6986 33.248 89.8426V31.319C33.248 30.463 33.8157 29.7626 34.5094 29.7626H108.433C109.126 29.7626 109.694 30.463 109.694 31.319V89.8426C109.694 90.6986 109.126 91.399 108.433 91.399Z" fill="#263238"/>
<path d="M107.802 34.2447H35.1406V85.4217H107.802V34.2447Z" fill="#BC6270"/>
<path d="M71.9273 31.8204C71.9273 32.1319 71.7227 32.3839 71.4703 32.3839C71.2179 32.3839 71.0137 32.1314 71.0137 31.8204C71.0137 31.509 71.2183 31.2566 71.4703 31.2566C71.7227 31.257 71.9273 31.509 71.9273 31.8204Z" fill="#EE4961" fill-opacity="0.5"/>
<path d="M119.982 111.51L110.592 93.0711C110.062 92.0303 109.136 91.3988 108.14 91.3988H69.8337H67.7145H34.801C33.805 91.3988 32.8787 92.0303 32.3488 93.0711L22.9588 111.51C22.6931 112.032 22.5985 112.653 22.6816 113.252H120.259C120.342 112.653 120.248 112.032 119.982 111.51Z" fill="#EE4961" fill-opacity="0.5"/>
<path d="M22.6816 113.252C22.6987 113.376 22.7207 113.498 22.7532 113.619L22.9012 114.167C23.1756 115.182 23.9455 115.867 24.8127 115.867H67.7142H69.8334H118.128C118.995 115.867 119.765 115.182 120.039 114.167L120.187 113.619C120.22 113.498 120.242 113.375 120.259 113.252H22.6816Z" fill="#263238"/>
<path d="M38.3345 100.499L38.7918 99.2578H36.5292L36.0449 100.499H38.3345Z" fill="#263238"/>
<path d="M42.3201 96.9657L42.5446 96.3182L42.7502 95.7242H40.5609L40.1035 96.9657H42.3201Z" fill="#263238"/>
<path d="M39.2578 99.2578L38.8008 100.499H41.0952L41.525 99.2578H39.2578Z" fill="#263238"/>
<path d="M38.9855 98.7311L39.4429 97.4897H37.219L36.7344 98.7311H38.9855Z" fill="#263238"/>
<path d="M85.0527 95.7242L85.3059 96.9657H87.2515L86.9715 95.7242H85.0527Z" fill="#263238"/>
<path d="M50.1432 99.2578L49.8359 100.499H52.1492L52.4432 99.2578H50.1432Z" fill="#263238"/>
<path d="M47.4363 99.2578L47.0742 100.499H49.3893L49.6965 99.2578H47.4363Z" fill="#263238"/>
<path d="M44.7193 99.2578L44.3164 100.499H46.6227L46.9847 99.2578H44.7193Z" fill="#263238"/>
<path d="M41.9884 99.2578L41.5586 100.499H43.8572L44.2601 99.2578H41.9884Z" fill="#263238"/>
<path d="M87.4141 95.7242L87.6941 96.9657H89.5119L89.2176 95.7242H87.4141Z" fill="#263238"/>
<path d="M57.966 97.4897L57.7129 98.7311H59.5423L59.7682 97.4897H57.966Z" fill="#263238"/>
<path d="M77.8145 95.7242L77.9855 96.9657H80.0967L79.898 95.7242H77.8145Z" fill="#263238"/>
<path d="M57.6335 96.9657L57.8866 95.7242H55.9678L55.6875 96.9657H57.6335Z" fill="#263238"/>
<path d="M55.2472 96.9657L55.5276 95.7242H53.724L53.4297 96.9657H55.2472Z" fill="#263238"/>
<path d="M59.8649 96.9657L60.0907 95.7242H58.327L58.0742 96.9657H59.8649Z" fill="#263238"/>
<path d="M89.6602 95.7242L89.9541 96.9657H92.229L91.9211 95.7242H89.6602Z" fill="#263238"/>
<path d="M48.4675 95.7242L48.1055 96.9657H50.2655L50.4243 96.3251L50.5731 95.7242H48.4675Z" fill="#263238"/>
<path d="M47.6526 96.9657L48.0146 95.7242H45.8654L45.4629 96.9657H47.6526Z" fill="#263238"/>
<path d="M43.2133 95.7242L42.7832 96.9657H45.0047L45.2141 96.3195L45.4072 95.7242H43.2133Z" fill="#263238"/>
<path d="M82.8516 95.7242L83.0771 96.9657H84.8681L84.615 95.7242H82.8516Z" fill="#263238"/>
<path d="M80.332 95.7242L80.5307 96.9657H82.6397L82.4142 95.7242H80.332Z" fill="#263238"/>
<path d="M52.9855 96.9657L53.2798 95.7242H51.0185L50.7109 96.9657H52.9855Z" fill="#263238"/>
<path d="M55.646 95.1986L55.9071 94.0429H54.1217L53.8477 95.1986H55.646Z" fill="#263238"/>
<path d="M53.4038 95.1986L53.6775 94.0429H51.4351L51.1484 95.1986H53.4038Z" fill="#263238"/>
<path d="M75.3281 95.7242L75.4454 96.9657H77.5534L77.3824 95.7242H75.3281Z" fill="#263238"/>
<path d="M62.693 95.1986L62.878 94.0429H60.8332L60.623 95.1986H62.693Z" fill="#263238"/>
<path d="M60.1855 95.1986L60.396 94.0429H58.6689L58.4336 95.1986H60.1855Z" fill="#263238"/>
<path d="M57.9951 95.1986L58.2305 94.0429H56.349L56.0879 95.1986H57.9951Z" fill="#263238"/>
<path d="M100.191 95.7242L100.621 96.9657H102.838L102.381 95.7242H100.191Z" fill="#263238"/>
<path d="M42.9321 95.1986L43.3325 94.0429H41.1795L40.7539 95.1986H42.9321Z" fill="#263238"/>
<path d="M45.5772 95.1986L45.9522 94.0429H43.795L43.3945 95.1986H45.5772Z" fill="#263238"/>
<path d="M50.7036 95.1986L50.9899 94.0429H48.958L48.6211 95.1986H50.7036Z" fill="#263238"/>
<path d="M102.848 95.7242L103.305 96.9657H105.517L105.032 95.7242H102.848Z" fill="#263238"/>
<path d="M48.1689 95.1986L48.5058 94.0429H46.4121L46.0371 95.1986H48.1689Z" fill="#263238"/>
<path d="M92.3672 95.7242L92.6751 96.9657H94.8351L94.4731 95.7242H92.3672Z" fill="#263238"/>
<path d="M62.476 99.2578L62.2773 100.499H64.466L64.6374 99.2578H62.476Z" fill="#263238"/>
<path d="M52.8877 99.2578L52.5938 100.499H54.4497L54.73 99.2578H52.8877Z" fill="#263238"/>
<path d="M59.8841 99.2578L59.6582 100.499H61.8444L62.0431 99.2578H59.8841Z" fill="#263238"/>
<path d="M55.171 99.2578L54.8906 100.499H56.9138L57.1669 99.2578H55.171Z" fill="#263238"/>
<path d="M57.6066 99.2578L57.3535 100.499H59.2217L59.4476 99.2578H57.6066Z" fill="#263238"/>
<path d="M65.5581 95.7242L65.3867 96.9657H67.4951L67.612 95.7242H65.5581Z" fill="#263238"/>
<path d="M65.1993 95.1986L65.3589 94.0429H63.312L63.127 95.1986H65.1993Z" fill="#263238"/>
<path d="M62.7592 97.4897L62.5605 98.7311H64.7104L64.8819 97.4897H62.7592Z" fill="#263238"/>
<path d="M97.5332 95.7242L97.9361 96.9657H100.158L99.7274 95.7242H97.5332Z" fill="#263238"/>
<path d="M67.3284 98.7311L67.4454 97.4897H65.314L65.1426 98.7311H67.3284Z" fill="#263238"/>
<path d="M94.9258 95.7242L95.2882 96.9657H97.4779L97.075 95.7242H94.9258Z" fill="#263238"/>
<path d="M39.6343 96.9657L40.0916 95.7242H37.9065L37.4219 96.9657H39.6343Z" fill="#263238"/>
<path d="M88.0497 100.499L87.7694 99.2578H85.7734L86.0262 100.499H88.0497Z" fill="#263238"/>
<path d="M55.5691 97.4897L55.2891 98.7311H57.2735L57.5266 97.4897H55.5691Z" fill="#263238"/>
<path d="M91.7924 95.1986L91.5061 94.0429H89.2637L89.537 95.1986H91.7924Z" fill="#263238"/>
<path d="M96.9042 95.1986L96.5296 94.0429H94.4355L94.7728 95.1986H96.9042Z" fill="#263238"/>
<path d="M94.32 95.1986L93.9827 94.0429H91.9512L92.2374 95.1986H94.32Z" fill="#263238"/>
<path d="M82.3175 95.1986L82.1073 94.0429H80.0625L80.2472 95.1986H82.3175Z" fill="#263238"/>
<path d="M79.814 95.1986L79.6289 94.0429H77.582L77.7416 95.1986H79.814Z" fill="#263238"/>
<path d="M99.5459 95.1986L99.1455 94.0429H96.9883L97.3632 95.1986H99.5459Z" fill="#263238"/>
<path d="M86.8538 95.1986L86.5927 94.0429H84.7109L84.9466 95.1986H86.8538Z" fill="#263238"/>
<path d="M84.5054 95.1986L84.2697 94.0429H82.543L82.7531 95.1986H84.5054Z" fill="#263238"/>
<path d="M85.5882 100.499L85.3351 99.2578H83.4941L83.7197 100.499H85.5882Z" fill="#263238"/>
<path d="M101.381 100.499L100.951 99.2578H98.6797L99.0826 100.499H101.381Z" fill="#263238"/>
<path d="M95.8651 100.499L95.5028 99.2578H93.2422L93.5498 100.499H95.8651Z" fill="#263238"/>
<path d="M106.895 100.499L106.41 99.2578H104.148L104.606 100.499H106.895Z" fill="#263238"/>
<path d="M104.139 100.499L103.681 99.2578H101.414L101.844 100.499H104.139Z" fill="#263238"/>
<path d="M98.6247 100.499L98.2218 99.2578H95.957L96.3187 100.499H98.6247Z" fill="#263238"/>
<path d="M83.2833 100.499L83.0578 99.2578H80.8984L81.0971 100.499H83.2833Z" fill="#263238"/>
<path d="M102.188 95.1986L101.762 94.0429H99.6094L100.01 95.1986H102.188Z" fill="#263238"/>
<path d="M105.99 96.9657H108.032L107.463 95.7242H105.506L105.99 96.9657Z" fill="#263238"/>
<path d="M90.3479 100.499L90.0536 99.2578H88.2109L88.4913 100.499H90.3479Z" fill="#263238"/>
<path d="M104.828 95.1986L104.376 94.0429H102.229L102.654 95.1986H104.828Z" fill="#263238"/>
<path d="M93.1053 100.499L92.7977 99.2578H90.498L90.792 100.499H93.1053Z" fill="#263238"/>
<path d="M107.223 95.1986L106.693 94.0429H104.85L105.301 95.1986H107.223Z" fill="#263238"/>
<path d="M89.0943 95.1986L88.8209 94.0429H87.0352L87.2963 95.1986H89.0943Z" fill="#263238"/>
<path d="M75.3495 100.499L75.2325 99.2578H73.0254L73.0662 100.499H75.3495Z" fill="#263238"/>
<path d="M42.602 97.4897L42.3775 98.1375L42.1719 98.7311H44.4321L44.8346 97.4897H42.602Z" fill="#263238"/>
<path d="M77.7993 98.7311L77.6278 97.4897H75.4961L75.6134 98.7311H77.7993Z" fill="#263238"/>
<path d="M41.7085 98.7311L42.1389 97.4897H39.9101L39.671 98.1388L39.4531 98.7311H41.7085Z" fill="#263238"/>
<path d="M60.5267 95.7242L60.3008 96.9657H62.4095L62.6081 95.7242H60.5267Z" fill="#263238"/>
<path d="M63.0428 95.7242L62.8438 96.9657H64.9549L65.1263 95.7242H63.0428Z" fill="#263238"/>
<path d="M50.581 97.4897L50.2734 98.7311H52.5675L52.8615 97.4897H50.581Z" fill="#263238"/>
<path d="M45.2935 97.4897L44.8906 98.7311H47.1386L47.5007 97.4897H45.2935Z" fill="#263238"/>
<path d="M53.3057 97.4897L53.0117 98.7311H54.8485L55.1288 97.4897H53.3057Z" fill="#263238"/>
<path d="M72.9688 97.4897L73.0092 98.7311H75.1836L75.0663 97.4897H72.9688Z" fill="#263238"/>
<path d="M47.9519 97.4897L47.5898 98.7311H49.827L50.1346 97.4897H47.9519Z" fill="#263238"/>
<path d="M74.85 95.1986L74.7407 94.0429H72.8555L72.8932 95.1986H74.85Z" fill="#263238"/>
<path d="M80.6628 100.499L80.4642 99.2578H78.3027L78.4738 100.499H80.6628Z" fill="#263238"/>
<path d="M70.5107 94.0429L70.4727 95.1986H72.4668L72.4291 94.0429H70.5107Z" fill="#263238"/>
<path d="M70.4565 95.7242L70.416 96.9657H72.5254L72.4849 95.7242H70.4565Z" fill="#263238"/>
<path d="M75.0164 96.9657L74.8991 95.7242H72.9102L72.9507 96.9657H75.0164Z" fill="#263238"/>
<path d="M77.31 95.1986L77.1505 94.0429H75.1699L75.2792 95.1986H77.31Z" fill="#263238"/>
<path d="M70.3983 97.4897L70.3574 98.7311H72.5827L72.5422 97.4897H70.3983Z" fill="#263238"/>
<path d="M70.3416 99.2578L70.3008 100.499H72.6413L72.6008 99.2578H70.3416Z" fill="#263238"/>
<path d="M70.0467 95.1986L70.0844 94.0429H68.1988L68.0898 95.1986H70.0467Z" fill="#263238"/>
<path d="M65.6309 95.1986H67.6617L67.7706 94.0429H65.7908L65.6309 95.1986Z" fill="#263238"/>
<path d="M80.3803 98.7311L80.1813 97.4897H78.0586L78.2304 98.7311H80.3803Z" fill="#263238"/>
<path d="M60.2064 97.4897L59.9805 98.7311H62.1279L62.3266 97.4897H60.2064Z" fill="#263238"/>
<path d="M33.0502 101.023L32.5527 102.109H34.9432L35.367 101.023H33.0502Z" fill="#263238"/>
<path d="M89.9299 98.7311L89.636 97.4897H87.8125L88.0932 98.7311H89.9299Z" fill="#263238"/>
<path d="M88.6113 101.023L88.8568 102.109H90.7309L90.4736 101.023H88.6113Z" fill="#263238"/>
<path d="M85.2272 98.7311L84.974 97.4897H83.1719L83.3974 98.7311H85.2272Z" fill="#263238"/>
<path d="M69.8731 100.499L69.9136 99.2578H67.7068L67.5898 100.499H69.8731Z" fill="#263238"/>
<path d="M96.4707 101.023L96.7874 102.109H99.146L98.7941 101.023H96.4707Z" fill="#263238"/>
<path d="M103.489 98.7311L103.032 97.4897H100.803L101.233 98.7311H103.489Z" fill="#263238"/>
<path d="M99.2539 101.023L99.6058 102.109H101.94L101.564 101.023H99.2539Z" fill="#263238"/>
<path d="M65.0699 99.2578L64.8984 100.499H67.1618L67.2788 99.2578H65.0699Z" fill="#263238"/>
<path d="M33.8594 99.2578L33.291 100.499H35.5722L36.0568 99.2578H33.8594Z" fill="#263238"/>
<path d="M75.8281 101.023L75.9308 102.109H78.2646L78.1149 101.023H75.8281Z" fill="#263238"/>
<path d="M41.3764 101.023L41 102.109H43.3342L43.6865 101.023H41.3764Z" fill="#263238"/>
<path d="M69.8575 101.023H67.5417L67.4395 102.109H69.8219L69.8575 101.023Z" fill="#263238"/>
<path d="M100.77 98.7311L100.34 97.4897H98.1074L98.51 98.7311H100.77Z" fill="#263238"/>
<path d="M35.8402 101.023L35.416 102.109H37.7412L38.1413 101.023H35.8402Z" fill="#263238"/>
<path d="M80.6152 97.4897L80.8142 98.7311H82.9617L82.7361 97.4897H80.6152Z" fill="#263238"/>
<path d="M90.916 101.023L91.1733 102.109H93.5044L93.2349 101.023H90.916Z" fill="#263238"/>
<path d="M81.1816 101.023L81.3552 102.109H83.577L83.3797 101.023H81.1816Z" fill="#263238"/>
<path d="M92.6678 98.7311L92.3602 97.4897H90.0801L90.3737 98.7311H92.6678Z" fill="#263238"/>
<path d="M95.3498 98.7311L94.9874 97.4897H92.8047L93.1123 98.7311H95.3498Z" fill="#263238"/>
<path d="M78.5469 101.023L78.6967 102.109H80.9206L80.747 101.023H78.5469Z" fill="#263238"/>
<path d="M93.6797 101.023L93.9492 102.109H96.3344L96.0178 101.023H93.6797Z" fill="#263238"/>
<path d="M35.4769 95.7242L34.9082 96.9657H36.9499L37.4344 95.7242H35.4769Z" fill="#263238"/>
<path d="M104.801 101.023L105.201 102.109H107.526L107.101 101.023H104.801Z" fill="#263238"/>
<path d="M36.248 94.0429L35.7188 95.1986H37.6407L38.0917 94.0429H36.248Z" fill="#263238"/>
<path d="M98.0514 98.7311L97.6489 97.4897H95.4414L95.8038 98.7311H98.0514Z" fill="#263238"/>
<path d="M64.2438 102.109L64.3936 101.023H44.1456L43.793 102.109H64.2438Z" fill="#263238"/>
<path d="M83.8145 101.023L84.0117 102.109H85.9155L85.6938 101.023H83.8145Z" fill="#263238"/>
<path d="M67.9238 96.9657H69.9896L70.0301 95.7242H68.0408L67.9238 96.9657Z" fill="#263238"/>
<path d="M109.08 99.2578H106.883L107.997 102.11H110.387L109.08 99.2578Z" fill="#263238"/>
<path d="M106.68 98.7311H108.841L108.272 97.4897H106.195L106.68 98.7311Z" fill="#263238"/>
<path d="M106.206 98.7311L105.722 97.4897H103.498L103.955 98.7311H106.206Z" fill="#263238"/>
<path d="M67.0097 102.109L67.112 101.023H64.8256L64.6758 102.109H67.0097Z" fill="#263238"/>
<path d="M70.2837 101.023L70.248 102.109H75.5027L75.3997 101.023H70.2837Z" fill="#263238"/>
<path d="M102.027 101.023L102.403 102.109H104.733L104.333 101.023H102.027Z" fill="#263238"/>
<path d="M87.6519 98.7311L87.3712 97.4897H85.4141L85.6672 98.7311H87.6519Z" fill="#263238"/>
<path d="M86.1328 101.023L86.3545 102.109H88.4133L88.1678 101.023H86.1328Z" fill="#263238"/>
<path d="M34.668 97.4897L34.0996 98.7311H36.261L36.7456 97.4897H34.668Z" fill="#263238"/>
<path d="M40.2866 95.1986L40.7125 94.0429H38.5643L38.1133 95.1986H40.2866Z" fill="#263238"/>
<path d="M38.6071 101.023L38.207 102.109H40.5367L40.9131 101.023H38.6071Z" fill="#263238"/>
<path d="M69.9321 98.7311L69.973 97.4897H67.8748L67.7578 98.7311H69.9321Z" fill="#263238"/>
<path d="M77.871 99.2578H75.6621L75.7791 100.499H78.0424L77.871 99.2578Z" fill="#263238"/>
<path d="M84.8093 111.361H58.1312C58.0177 111.361 57.914 111.296 57.8466 111.184C57.7793 111.071 57.7601 110.93 57.7932 110.796L59.4893 103.995C59.5353 103.811 59.6712 103.688 59.8272 103.688H83.1137C83.2697 103.688 83.4055 103.811 83.4516 103.995L85.1477 110.796C85.1812 110.93 85.1616 111.071 85.0942 111.184C85.0265 111.296 84.9228 111.361 84.8093 111.361ZM59.8269 104.077C59.8098 104.077 59.7954 104.09 59.7902 104.11L58.0945 110.911C58.0896 110.93 58.0949 110.944 58.1001 110.953C58.1053 110.961 58.1148 110.972 58.1308 110.972H84.8093C84.8254 110.972 84.8348 110.961 84.8401 110.953C84.8453 110.944 84.8505 110.93 84.846 110.911L83.15 104.11C83.1451 104.09 83.1301 104.077 83.1133 104.077H59.8269Z" fill="#263238"/>
<path d="M113.282 8.95518L83.978 5.36355L105.163 30.3333L134.246 34.2149L113.282 8.95518Z" fill="#EE4961"/>
<path d="M83.9785 5.36356L83.7257 6.14154L104.69 31.8585L134.005 34.9597L134.247 34.2149L105.163 30.3333L83.9785 5.36356Z" fill="#263238"/>
<path d="M88.2485 27.0994L86.7028 30.4195C86.7028 30.4195 94.3773 45.3085 112.126 44.9809L113.249 42.3588C98.1969 40.6877 91.1507 32.1609 88.2485 27.0994Z" fill="#263238"/>
<path d="M115.934 56.2231C114.927 54.2978 114.573 51.8259 114.804 49.421C114.821 49.2427 114.621 49.2444 114.554 49.3802C114.538 49.314 114.474 49.2843 114.408 49.3015C114.42 49.1776 114.284 49.0752 114.181 49.1959C112.381 51.2893 112.274 54.2798 112.173 56.8962C112.165 57.1019 112.367 57.0552 112.375 56.849C112.454 54.8012 112.569 52.5167 113.533 50.6456C112.542 53.0854 112.385 55.8631 112.977 58.2471C113.02 58.4191 113.214 58.2924 113.171 58.1191C112.634 55.9548 112.796 53.4825 113.593 51.2335C113.337 52.1382 113.16 53.0657 113.118 53.9837C113.054 55.39 113.246 56.8151 113.469 58.1511C113.502 58.3479 113.696 58.2193 113.663 58.023C113.449 56.7388 113.34 55.3985 113.385 54.0492C113.404 53.4711 113.484 52.8846 113.602 52.3021C113.353 54.2299 113.509 56.1694 114.081 57.8883C114.141 58.0692 114.326 57.986 114.265 57.8027C113.638 55.9192 113.597 53.7548 113.971 51.6571C113.771 53.6707 113.952 55.6951 114.458 57.5479C114.509 57.7352 114.669 57.602 114.617 57.4127C114.124 55.6041 114.044 53.6509 114.236 51.6855C114.165 53.7542 114.278 55.8086 115.088 57.5591C115.167 57.7308 115.35 57.6213 115.271 57.4502C114.715 56.2478 114.556 54.816 114.503 53.4145C114.646 54.6715 114.914 55.8895 115.31 57.0405C115.373 57.2226 115.542 57.0201 115.48 56.8401C115.131 55.8277 114.954 54.774 114.808 53.6735C115.025 54.6015 115.34 55.4849 115.762 56.2899C115.848 56.455 116.021 56.3889 115.934 56.2231Z" fill="#FE7062"/>
<path d="M121.845 29.1993C121.545 28.1634 120.949 27.3529 120.308 26.6177C119.032 25.156 117.407 24.1728 115.821 23.2145C113.579 21.8601 111.268 20.5294 109.864 17.9878C109.809 17.889 109.721 17.9013 109.652 17.9612C109.647 17.9644 109.642 17.9692 109.637 17.9731C109.635 17.9755 109.633 17.9766 109.63 17.9791C109.558 18.0371 109.51 18.1388 109.555 18.2471C110.466 20.471 112.162 21.9763 113.91 23.2159C115.677 24.4688 117.547 25.5411 119.115 27.1165C119.164 27.1654 119.212 27.2143 119.261 27.2632C119.271 27.2726 119.321 27.328 119.322 27.3278C119.4 27.4168 119.476 27.5072 119.552 27.597C119.835 27.9269 120.105 28.2616 120.337 28.6462C120.614 29.1073 120.839 29.6345 120.925 30.2146C121.019 30.849 120.914 31.4921 120.698 32.1239C120.473 32.7813 120.16 33.4062 119.862 34.0285C119.553 34.6732 119.252 35.3225 118.949 35.9699C118.322 37.3089 117.707 38.6525 117.128 40.0164C115.856 43.0189 114.758 46.1468 114.211 49.3636C114.17 49.6023 114.496 49.653 114.558 49.4157C115.33 46.4448 116.472 43.5855 117.741 40.8062C118.373 39.423 119.038 38.057 119.706 36.6937C120.333 35.4141 121.025 34.1437 121.556 32.8134C122.037 31.607 122.184 30.3687 121.845 29.1993Z" fill="#FE7062"/>
<path d="M114.015 49.5424C114.049 49.5345 114.083 49.5283 114.117 49.5227C114.137 49.5198 114.137 49.52 114.114 49.5226C114.124 49.5217 114.134 49.5203 114.143 49.5199C114.158 49.5188 114.173 49.5176 114.187 49.5169C114.258 49.5135 114.327 49.5172 114.396 49.5268C114.413 49.529 114.43 49.5309 114.446 49.5348C114.401 49.5234 114.453 49.5372 114.462 49.5392C114.494 49.5474 114.526 49.5569 114.557 49.568C114.589 49.579 114.62 49.5913 114.65 49.6053C114.665 49.6124 114.68 49.6196 114.695 49.6271C114.703 49.6317 114.712 49.6358 114.72 49.6408C114.7 49.6288 114.699 49.6279 114.716 49.6386C114.759 49.6642 114.799 49.6802 114.851 49.666C114.894 49.6542 114.944 49.6179 114.971 49.5722C115.023 49.482 115.031 49.3282 114.946 49.277C114.654 49.1021 114.321 49.0446 113.975 49.1256C113.881 49.1478 113.801 49.2745 113.815 49.3834C113.83 49.4984 113.914 49.5663 114.015 49.5424Z" fill="#FE7062"/>
<path d="M114.113 49.1285C114.147 49.1206 114.181 49.1144 114.215 49.1087C114.235 49.1058 114.234 49.106 114.212 49.1087C114.222 49.1078 114.231 49.1068 114.241 49.1059C114.256 49.1048 114.27 49.1037 114.285 49.103C114.355 49.0996 114.425 49.1028 114.494 49.1129C114.51 49.1151 114.527 49.117 114.543 49.1208C114.499 49.1095 114.551 49.1232 114.56 49.1252C114.592 49.1334 114.624 49.143 114.655 49.154C114.686 49.1651 114.718 49.1775 114.748 49.1917C114.763 49.199 114.778 49.2061 114.793 49.2136C114.801 49.2182 114.809 49.2227 114.818 49.2273C114.798 49.2152 114.796 49.2143 114.814 49.225C114.857 49.2507 114.896 49.2667 114.948 49.2525C114.992 49.2407 115.042 49.2041 115.068 49.1586C115.121 49.0685 115.129 48.9143 115.043 48.8634C114.751 48.6884 114.419 48.6311 114.073 48.712C113.978 48.7344 113.898 48.8614 113.913 48.9699C113.928 49.0845 114.011 49.1522 114.113 49.1285Z" fill="#FE7062"/>
<path d="M116.722 34.4926L117.296 33.1917L104.69 31.8582L92.9529 17.46L91.8997 19.619L103.768 33.6865L116.722 34.4926Z" fill="#EE4961"/>
<path d="M103.766 33.6867L91.8976 19.619L88.2479 27.0996C91.1501 32.1611 98.1963 40.6878 113.248 42.3594L116.72 34.4927L103.766 33.6867Z" fill="#EE4961"/>
<path d="M137.304 108.504H104.189V116.559H137.304V108.504Z" fill="#FE7062"/>
<path d="M107.386 108.504H106.053V116.56H107.386V108.504Z" fill="#FE7062"/>
<path d="M109.389 108.504H108.055V116.56H109.389V108.504Z" fill="#FE7062"/>
<path d="M133.438 108.504H132.104V116.56H133.438V108.504Z" fill="#FE7062"/>
<path d="M135.439 108.504H134.105V116.56H135.439V108.504Z" fill="#FE7062"/>
<path d="M140.491 104.014V102.774C140.491 101.013 139.329 99.5803 137.902 99.5803H108.389V107.208H137.902C139.329 107.208 140.491 105.775 140.491 104.014Z" fill="white"/>
<path d="M137.902 98.2384H108.195V98.9096V99.5807H137.902C139.329 99.5807 140.491 101.014 140.491 102.775V104.014C140.491 105.776 139.329 107.208 137.902 107.208H108.195V107.879V108.551H137.902C139.929 108.551 141.578 106.516 141.578 104.014V102.775C141.578 100.273 139.929 98.2384 137.902 98.2384Z" fill="#263238"/>
<path d="M138.48 101.287H108.389V101.898H138.48V101.287Z" fill="#F5F5FF"/>
<path d="M138.48 103.126H108.389V103.737H138.48V103.126Z" fill="#F5F5FF"/>
<path d="M138.48 104.965H108.389V105.575H138.48V104.965Z" fill="#F5F5FF"/>
<path d="M105.859 94.2007V93.0846C105.859 91.4985 106.905 90.2083 108.19 90.2083H134.766V97.0769H108.19C106.905 97.0769 105.859 95.7867 105.859 94.2007Z" fill="white"/>
<path d="M108.19 88.9993H134.939V89.6036V90.208H108.19C106.904 90.208 105.859 91.4981 105.859 93.0842V94.2003C105.859 95.7864 106.904 97.0765 108.19 97.0765H134.939V97.6809V98.2853H108.19C106.364 98.2853 104.879 96.4528 104.879 94.2003V93.0842C104.879 90.8317 106.364 88.9993 108.19 88.9993Z" fill="#FE7062"/>
<path d="M107.67 92.2959H134.766V91.7462H107.67V92.2959Z" fill="#F5F5FF"/>
<path d="M107.67 93.9514H134.766V93.4018H107.67V93.9514Z" fill="#F5F5FF"/>
<path d="M107.67 95.6069H134.766V95.0573H107.67V95.6069Z" fill="#F5F5FF"/>
<path d="M24.0205 66.9996H3.18945V104.169H24.0205V66.9996Z" fill="#EE4961" fill-opacity="0.5"/>
<path d="M21.7715 72.452H5.4375V73.2747H21.7715V72.452Z" fill="#263238"/>
<path d="M21.7715 76.2283H5.4375V77.0511H21.7715V76.2283Z" fill="#263238"/>
<path d="M21.7715 80.0048H5.4375V80.8276H21.7715V80.0048Z" fill="#263238"/>
<path d="M21.7715 83.7813H5.4375V84.6041H21.7715V83.7813Z" fill="#263238"/>
<path d="M21.7715 87.5579H5.4375V88.3806H21.7715V87.5579Z" fill="#263238"/>
<path d="M21.7715 91.3358H5.4375V92.1585H21.7715V91.3358Z" fill="#263238"/>
<path d="M21.7715 100.509H5.4375V100.736H21.7715V100.509Z" fill="white"/>
<path d="M7.66997 96.94C8.50437 97.1132 9.35169 97.1649 10.1952 97.0744C10.9744 96.9909 11.8018 96.8289 12.5287 96.4593C13.0461 96.1961 13.6099 95.475 13.2468 94.7462C12.9271 94.1039 12.1244 94.0384 11.5927 94.1943C10.9727 94.3766 10.4211 94.8775 10.044 95.503C9.6666 96.1289 9.40406 97.0314 9.85059 97.7085C10.2633 98.334 11.0187 98.4594 11.6273 98.3551C11.9691 98.2965 12.3021 98.157 12.6013 97.9433C12.741 97.8434 12.8705 97.7253 12.9944 97.5982C13.1564 97.4328 13.3265 97.2131 13.5454 97.1757C13.8082 97.1304 13.8686 97.376 14.0359 97.5526C14.1521 97.6754 14.3016 97.7167 14.4513 97.6982C14.636 97.6749 14.8039 97.5767 14.975 97.4953C15.1904 97.3923 15.4034 97.354 15.6342 97.3605C16.6278 97.3898 17.6294 97.5526 18.6198 97.6521C18.7965 97.6698 18.7958 97.466 18.6198 97.4483C17.8825 97.3743 17.1448 97.1645 16.4075 97.0908C16.0709 97.0572 15.7249 96.9935 15.387 97.0275C15.0693 97.0598 14.8141 97.2631 14.51 97.3437C14.1682 97.4337 14.1211 97.0098 13.8473 96.8797C13.6044 96.7647 13.3369 96.8616 13.1292 97.0331C12.8757 97.242 12.6694 97.5142 12.3985 97.6947C12.0947 97.8968 11.7519 98.0182 11.4073 98.0441C10.8487 98.0859 10.0171 97.8757 9.89946 97.0602C9.79193 96.3163 10.2922 95.5482 10.7279 95.1093C11.1755 94.6583 11.7795 94.3598 12.3629 94.4916C12.6404 94.5545 13.0028 94.7156 13.0709 95.0998C13.1501 95.5482 12.8289 95.9101 12.5374 96.0863C12.197 96.2922 11.8036 96.3973 11.4356 96.4985C11.0271 96.6109 10.6134 96.6902 10.1962 96.735C9.37822 96.8224 8.55395 96.8716 7.74434 96.7031C7.56978 96.6669 7.49506 96.9039 7.66997 96.94Z" fill="#263238"/>
<path d="M30.9823 89.5621L27.3203 87.1106L28.3967 84.6625C28.6295 84.1327 29.1665 83.9363 29.5959 84.2236L31.7028 85.6343C32.1323 85.9217 32.2915 86.5842 32.0586 87.114L30.9823 89.5621Z" fill="#EE4961" fill-opacity="0.5"/>
<path d="M30.7244 90.131L27.0625 87.6794L16.4853 111.731L20.1472 114.183L30.7244 90.131Z" fill="#263238"/>
<path d="M29.5461 89.3447L28.2383 88.4691L17.6611 112.521L18.9689 113.396L29.5461 89.3447Z" fill="#EE4961"/>
<path d="M31.6352 89.3413L27.1016 86.3061L26.626 87.3874L31.1597 90.4226L31.6352 89.3413Z" fill="#FE7062"/>
<path d="M20.1506 114.193L16.4887 111.742L16.1172 115.841L17.5678 116.812L20.1506 114.193Z" fill="#EE4961" fill-opacity="0.5"/>
<path d="M17.5673 116.812L16.1167 115.841L15.873 118.53L17.5673 116.812Z" fill="#263238"/>
</svg>
