<svg width="151" height="151" viewBox="0 0 151 151" fill="none" xmlns="http://www.w3.org/2000/svg">
<g clip-path="url(#clip0_485_8261)">
<path d="M124.297 117.451C148.251 93.4971 148.251 54.6595 124.297 30.7052C100.343 6.75094 61.505 6.75093 37.5508 30.7052C13.5965 54.6595 13.5965 93.497 37.5508 117.451C61.5051 141.406 100.343 141.406 124.297 117.451Z" fill="#EE4961"/>
<path d="M94.7713 75.4437C92.1382 71.8244 87.6228 69.9893 81.3505 69.9893C74.2448 69.9893 69.2401 71.8783 66.4753 75.604C66.4737 75.6061 66.4722 75.6084 66.4707 75.6104C67.0096 75.4618 68.0807 75.1132 69.3953 74.4105C72.0901 72.3109 76.0956 71.2487 81.3505 71.2487C85.9327 71.2487 89.4864 72.2691 91.9565 74.2869C92.8279 74.7212 94.1237 75.2514 94.8362 75.5357C94.8145 75.505 94.7933 75.474 94.7713 75.4437Z" fill="#010101"/>
<path d="M80.6562 122.432C80.6579 122.432 80.6595 122.432 80.6613 122.432V122.432C80.6596 122.432 80.6579 122.432 80.6562 122.432Z" fill="#F26428"/>
<path d="M22.8151 92.3334C22.6792 91.1695 22.1986 90.1306 21.4883 89.3043C21.9399 91.0724 22.4681 92.8099 23.0696 94.5128L22.8151 92.3334Z" fill="#F9F9FA"/>
<path d="M104.381 110.344C104.024 104.162 103.887 98.2029 103.869 92.8731L103.864 92.8593L103.869 92.8404C103.869 92.8277 103.869 92.8147 103.869 92.802L103.878 92.8075L108.134 77.0256C107.099 75.9844 103.799 76.041 103.799 76.041H97.3872V76.0388C95.7675 75.9587 94.238 75.5381 92.8684 74.8477C92.8594 74.8593 92.8504 74.8706 92.8419 74.8827L93.5082 75.2761L96.2067 86.3442L92.5039 87.2698L94.9723 91.8981L82.4133 116.74L81.3379 119.811V135.415C89.5671 135.36 97.4112 133.685 104.568 130.693L104.252 109.775L104.381 110.344Z" fill="#F9F9FA"/>
<path d="M81.3376 119.811V119.653H80.8223V119.888L81.087 120.527L81.3376 119.811Z" fill="#E6E6E5"/>
<path d="M81.0871 120.527L80.8223 119.888V135.417C80.8555 135.417 80.8886 135.418 80.9218 135.418C81.0607 135.418 81.1991 135.416 81.3377 135.415V119.811L81.0871 120.527Z" fill="#E6E6E5"/>
<path d="M103.871 92.8731C103.87 92.8623 103.87 92.8513 103.87 92.8404L103.865 92.8593L103.871 92.8731Z" fill="#9FACC7"/>
<path d="M80.6632 122.432V122.432C80.6615 122.432 80.6599 122.432 80.6582 122.432C80.6599 122.432 80.6615 122.432 80.6632 122.432Z" fill="#526179"/>
<path d="M78.8843 115.212L76.9597 112.383L66.6036 91.8981L69.0719 87.2698L65.3692 86.3442L68.0677 75.2761L68.734 74.8827C68.7254 74.8705 68.7163 74.8592 68.7077 74.8476C67.3379 75.5381 65.8082 75.9587 64.1887 76.0388V76.041H58.5124C58.5132 76.0522 58.514 76.0637 58.5148 76.075C58.4785 76.0744 58.4424 76.0723 58.406 76.0723C54.684 76.0723 51.6667 79.0893 51.6667 82.8112C51.6667 83.3612 51.7341 83.8952 51.8584 84.4068L43.415 100.609L27.0808 103.487L24.1774 103.998L23.0699 94.5128C22.4684 92.8099 21.9402 91.0723 21.4886 89.3042C20.5142 88.1705 19.107 87.4379 17.5577 87.3389C17.2216 87.3175 16.8793 87.324 16.5329 87.3645C13.4259 87.7271 11.2014 90.5399 11.5641 93.647L13.6224 111.275C13.8033 112.824 14.6146 114.229 15.8653 115.161C16.8498 115.894 18.2755 114.696 19.4857 114.696C19.8129 114.696 20.1418 114.668 20.4685 114.61L29.662 112.163L32.969 111.568L48.1301 111.28C49.8637 110.975 51.3567 109.881 52.1701 108.32L58.4094 96.3473C58.3703 97.1483 58.3305 97.9088 58.2914 98.6169L58.2891 99.2798L57.8085 115.426L57.6019 122.367L57.3967 130.743C64.6127 133.742 72.5245 135.404 80.8232 135.417V119.888L78.8843 115.212ZM80.6623 122.432C80.6606 122.432 80.6589 122.432 80.6573 122.432C80.6589 122.432 80.6606 122.432 80.6623 122.432V122.432Z" fill="#F9F9FA"/>
<path d="M88.0263 68.3539L88.032 68.3585V66.084H74.131V69.3702H74.0844C73.5001 70.6664 72.678 71.8314 71.6758 72.8132C82.5275 73.8525 88.0263 68.3539 88.0263 68.3539Z" fill="#DDC299"/>
<path d="M88.0327 70.4775V68.3584L88.027 68.3538C88.027 68.3538 82.5282 73.8525 71.6765 72.8132C70.8446 73.6286 69.8888 74.318 68.8379 74.8476C70.1973 76.7867 72.014 78.3807 74.1318 79.4735V82.5301H74.1492V82.7384H87.362V82.5301H88.0327V79.1807C89.935 78.0952 91.5699 76.5954 92.8161 74.8047C90.834 73.8525 89.1721 72.3432 88.0327 70.4775Z" fill="#FFBF9D"/>
<path d="M90.6322 77.1677C88.0243 79.5997 84.5298 81.0915 80.6824 81.0915C77.1509 81.0915 73.9205 79.8326 71.3965 77.7458L81.0836 120.538L90.6322 77.1677Z" fill="#9FACC7"/>
<path d="M83.5646 113.508L85.7524 108.154L83.1498 83.8195L81.0937 83.2198V83.1938L81.0489 83.2068L81.0043 83.1938V83.2198L78.9479 83.8195L76.166 109.766L79.4766 116.042L81.06 120.475L81.5782 119.554L82.8736 115.898L83.5646 113.508Z" fill="#263238"/>
<path d="M84.1956 79.8234L80.9775 79.3822L77.7586 79.8234L77.1328 81.6113L78.6527 84.0251L80.9775 84.1147L83.3022 84.0251L84.8216 81.6113L84.1956 79.8234Z" fill="#263238"/>
<path d="M70.5101 73.8334L80.8316 79.3822L73.5067 86.7075L68.0684 75.2761L70.5101 73.8334Z" fill="#9FACC7"/>
<path d="M91.1771 73.8334L80.8555 79.3822L88.1803 86.7075L93.485 75.3935L91.1771 73.8334Z" fill="#9FACC7"/>
<path d="M98.7695 44.1269C98.7695 31.5999 91.2378 27.6555 81.4479 27.6555C81.3275 27.6555 81.2078 27.6568 81.0879 27.659V70.6423C90.8574 70.6027 98.7695 56.6369 98.7695 44.1269Z" fill="#FFBF9D"/>
<path d="M80.6404 27.6698C71.2068 27.977 63.3223 31.9456 63.3223 44.127C63.3223 56.4818 71.0412 70.3542 80.6404 70.63C80.7766 70.634 80.9107 70.6435 81.0451 70.6435C81.0591 70.6435 81.0729 70.6423 81.0869 70.6423V27.659C80.9379 27.6614 80.789 27.6649 80.6404 27.6698Z" fill="#FFBF9D"/>
<path d="M99.9478 42.5429C99.5239 36.9406 97.2403 32.8883 97.2403 32.8883C98.7678 26.0714 92.3959 24.1729 85.6775 24.0088C79.4665 23.8588 72.9604 25.1889 72.12 25.4953C71.2094 25.827 69.9284 25.9423 68.9141 25.9768C67.9827 26.0075 67.2724 25.9725 67.2724 25.9725C67.3103 26.1263 67.46 26.4851 67.6067 26.8147C67.7587 27.1645 67.9074 27.4812 67.9074 27.4812C67.729 27.4998 67.404 27.4107 67.0133 27.2665C65.6534 26.7681 63.4559 25.5752 63.4559 25.5752C63.2185 27.4041 63.6558 29.0343 64.1527 30.2063C64.6494 31.3786 65.2049 32.0933 65.2049 32.0933C64.8063 32.1732 63.6939 31.6962 63.6939 31.6962C64.0132 33.2064 64.3315 33.9226 64.3315 33.9226C61.9399 35.6677 61.3858 40.7064 61.3418 44.648L65.441 49.4344L66.8586 45.9986C66.8888 46.003 66.9174 46.0038 66.9481 46.0079C67.9487 42.391 68.7823 36.9426 68.7823 36.9426C79.4768 43.8084 89.3172 38.3227 91.0176 37.2691C91.3402 36.9153 91.5109 36.703 91.5109 36.703C92.1173 43.5734 96.7632 48.2203 96.7632 48.2203C96.375 45.3026 99.7222 43.0146 99.9716 42.849C99.9817 42.8422 99.9949 42.8331 99.9949 42.8331C99.9817 42.7331 99.9645 42.6414 99.9478 42.5429Z" fill="#263238"/>
<path d="M96.4476 47.0493C95.7788 49.6054 96.2543 51.9466 97.5072 52.2762C98.7635 52.6082 100.322 50.8036 100.993 48.2467C101.662 45.6916 101.186 43.3505 99.9327 43.0196C98.6784 42.6892 97.1186 44.4926 96.4476 47.0493Z" fill="#FFBF9D"/>
<path d="M65.1709 47.1164C65.8663 49.6143 65.5004 51.8982 64.3614 52.215C63.2222 52.5328 61.7365 50.7647 61.043 48.2658C60.3501 45.7666 60.7133 43.4837 61.8519 43.1659C62.9926 42.8497 64.48 44.6169 65.1709 47.1164Z" fill="#FFBF9D"/>
<path d="M81.0821 120.538L71.395 77.7458L70.5095 73.8334L68.734 74.8826L68.0677 75.2761L65.3691 86.3441L69.0719 87.2698L66.6036 91.898L81.0821 120.538Z" fill="#E6E6E5"/>
<path d="M96.505 86.3442L93.8065 75.2761L93.7771 75.2585L91.3015 73.9336L90.6307 77.1677L81.082 120.538L95.2711 91.8981L92.8025 87.2698L96.505 86.3442Z" fill="#E6E6E5"/>
<path d="M59.0523 107.451L14.4353 116.458L3.02539 59.9444L47.6424 50.9364L59.0523 107.451Z" fill="#9FACC7"/>
<path d="M45.8943 54.3832L5.97461 62.4429L16.1834 113.007L56.1032 104.948L45.8943 54.3832Z" fill="white"/>
<path d="M15.5557 77.2268L12.5809 77.827L11.9805 74.8535L14.9554 74.2529L15.5557 77.2268Z" fill="#263238"/>
<path d="M42.6226 68.6652L17.9238 73.6519L18.5242 76.6256L43.223 71.639L42.6226 68.6652Z" fill="#263238"/>
<path d="M16.0989 79.9013L13.125 80.502L13.7257 83.4758L16.6996 82.8751L16.0989 79.9013Z" fill="#263238"/>
<path d="M40.6495 74.9439L19.0645 79.3019L19.6649 82.2757L41.25 77.9177L40.6495 74.9439Z" fill="#263238"/>
<path d="M17.2344 85.5517L14.2598 86.1523L14.8602 89.1261L17.8348 88.5255L17.2344 85.5517Z" fill="#263238"/>
<path d="M40.339 83.9838L20.8057 87.9274L20.2051 84.9534L39.7386 81.01L40.339 83.9838Z" fill="#263238"/>
<path d="M18.3771 91.2008L15.4023 91.8014L16.0027 94.7751L18.9774 94.1746L18.3771 91.2008Z" fill="#263238"/>
<path d="M46.677 85.487L21.3457 90.6013L21.9461 93.575L47.2774 88.4607L46.677 85.487Z" fill="#263238"/>
<path d="M20.1181 99.827L17.1434 100.427L16.543 97.4535L19.5178 96.8528L20.1181 99.827Z" fill="#263238"/>
<path d="M47.8176 91.1371L22.4863 96.2514L23.0867 99.2251L48.418 94.1108L47.8176 91.1371Z" fill="#263238"/>
<path d="M4.59572 86.2004C4.70619 86.2004 4.81818 86.1925 4.93082 86.1763L11.4406 85.2465C12.7245 85.0631 13.6168 83.8734 13.4333 82.5895C13.2499 81.3057 12.0625 80.414 10.7764 80.597L4.26654 81.5267C2.98268 81.7101 2.09042 82.8998 2.27392 84.1837C2.44116 85.355 3.4458 86.2004 4.59572 86.2004Z" fill="#FFBF9D"/>
<path d="M4.26105 91.2932L10.6381 90.4962C11.9251 90.3351 12.838 89.1615 12.6772 87.8745C12.5163 86.5876 11.3432 85.6761 10.0556 85.8355L3.67855 86.6326C2.39158 86.7933 1.4787 87.967 1.63945 89.254C1.78797 90.4422 2.79964 91.3116 3.96678 91.3116C4.06394 91.3116 4.16215 91.3054 4.26105 91.2932Z" fill="#FFBF9D"/>
<path d="M11.9985 95.137C13.2733 94.8978 14.113 93.6707 13.874 92.3959C13.6349 91.121 12.4078 90.2817 11.133 90.5205L4.75595 91.716C3.48123 91.955 2.64143 93.1821 2.8805 94.4569C3.09214 95.5856 4.07805 96.3732 5.18602 96.3732C5.32957 96.3732 5.47525 96.3599 5.62151 96.3324L11.9985 95.137Z" fill="#FFBF9D"/>
<path d="M15.073 96.9986C14.882 95.8527 13.7997 95.0778 12.6527 95.2696L6.94135 96.2215C5.79565 96.4123 5.02154 97.4961 5.21255 98.6419C5.384 99.6707 6.27508 100.4 7.28469 100.4C7.39933 100.4 7.51587 100.39 7.63299 100.371L13.3442 99.4187C14.4899 99.228 15.264 98.1443 15.073 96.9986Z" fill="#FFBF9D"/>
<path d="M111.02 80.2532C112.616 83.6329 111.634 87.4477 108.827 88.7735C106.019 90.0994 102.449 88.4344 100.853 85.0547C99.2568 81.6748 100.239 77.8601 103.047 76.5342C105.854 75.2083 109.424 76.8733 111.02 80.2532Z" fill="#F9F9FA"/>
<path d="M80.8003 110.022C80.8003 110.453 80.4507 110.803 80.0193 110.803C79.5879 110.803 79.2383 110.453 79.2383 110.022C79.2383 109.591 79.5879 109.241 80.0193 109.241C80.4507 109.241 80.8003 109.591 80.8003 110.022Z" fill="#343337"/>
<path d="M83.1792 110.257C83.1792 110.688 82.8296 111.038 82.3982 111.038C81.9669 111.038 81.6172 110.688 81.6172 110.257C81.6172 109.825 81.9669 109.476 82.3982 109.476C82.8296 109.476 83.1792 109.825 83.1792 110.257Z" fill="#343337"/>
<path d="M104.072 111.296C100.713 108.954 93.8042 107.774 87.5541 107.441L84.5117 113.65L104.286 114.581L104.072 111.296Z" fill="#E6E6E5"/>
<path d="M64.1067 83.7791C64.1529 86.1592 64.6687 87.8885 64.6906 87.961L65.8962 87.5967C65.8767 87.5319 63.9879 81.0605 67.4926 76.3471C68.0294 75.6253 68.6647 74.9801 69.3957 74.4105C68.0811 75.1132 67.01 75.4618 66.4711 75.6105C64.8628 77.7811 64.0453 80.6055 64.1067 83.7791Z" fill="#010101"/>
<path d="M95.0781 91.8355L95.6773 92.0291L95.0782 91.8352L95.0781 91.8355Z" fill="#010101"/>
<path d="M94.8348 75.5357C94.1223 75.2514 92.8266 74.7212 91.9551 74.2869C92.6354 74.8428 93.2339 75.4738 93.7487 76.1806C96.0152 79.2932 96.2624 83.3598 96.0705 86.2232C95.8595 89.3739 95.0851 91.8065 95.0759 91.8352L95.675 92.0291L96.2741 92.2229C96.3077 92.1191 97.0995 89.6418 97.3249 86.3409C97.6231 81.9732 96.7618 78.2407 94.8348 75.5357Z" fill="#010101"/>
<path d="M95.7883 95.8632C97.9075 95.8632 99.6254 94.1452 99.6254 92.0261C99.6254 89.9069 97.9075 88.1889 95.7883 88.1889C93.6691 88.1889 91.9512 89.9069 91.9512 92.0261C91.9512 94.1452 93.6691 95.8632 95.7883 95.8632Z" fill="#E6E6E5"/>
<path d="M95.7884 96.1387C93.5207 96.1387 91.6758 94.2937 91.6758 92.026C91.6758 89.7583 93.5207 87.9134 95.7884 87.9134C98.0562 87.9134 99.9011 89.7583 99.9011 92.026C99.9011 94.2938 98.0562 96.1387 95.7884 96.1387ZM95.7884 88.4644C93.8245 88.4644 92.2268 90.0621 92.2268 92.0261C92.2268 93.99 93.8245 95.5877 95.7884 95.5877C97.7524 95.5877 99.3501 93.99 99.3501 92.0261C99.3501 90.0621 97.7524 88.4644 95.7884 88.4644Z" fill="#010101"/>
<path d="M95.7901 94.8006C97.3224 94.8006 98.5646 93.5584 98.5646 92.0261C98.5646 90.4938 97.3224 89.2516 95.7901 89.2516C94.2578 89.2516 93.0156 90.4938 93.0156 92.0261C93.0156 93.5584 94.2578 94.8006 95.7901 94.8006Z" fill="#526179"/>
<path d="M65.5179 112.771C62.4591 112.608 62.0958 110.643 62.0819 110.56L60.0273 98.2716L60.9605 98.1156L63.0151 110.404C63.0245 110.45 63.3024 111.705 65.5679 111.826L65.5179 112.771Z" fill="#526179"/>
<path d="M72.6005 110.989C75.44 109.84 75.1442 107.863 75.1303 107.78L73.0758 95.492L72.1426 95.648L74.1972 107.936C74.2033 107.983 74.349 109.261 72.2458 110.111L72.6005 110.989Z" fill="#526179"/>
<path d="M66.3188 111.263C67.2173 111.441 67.8522 112.057 67.7368 112.639C67.6211 113.22 66.7989 113.547 65.9004 113.368C65.0019 113.19 64.3671 112.574 64.4822 111.992C64.5979 111.411 65.4203 111.084 66.3188 111.263Z" fill="#292728"/>
<path d="M71.3455 110.422C70.5539 110.883 70.154 111.673 70.4523 112.185C70.7508 112.697 71.6345 112.738 72.4261 112.277C73.2176 111.816 73.6175 111.027 73.3195 110.515C73.021 110.003 72.137 109.961 71.3455 110.422Z" fill="#292728"/>
<path d="M59.7692 98.6135C59.751 98.5047 59.3275 95.9169 59.6711 93.1554C60.152 89.2913 61.9067 86.9979 64.7454 86.5233C71.4756 85.398 73.2978 95.8203 73.3721 96.2646L71.9725 96.4992C71.9566 96.4044 70.3158 87.0308 64.9794 87.9231C62.7928 88.2886 61.4806 90.1081 61.0795 93.3302C60.7611 95.8889 61.1648 98.3549 61.1689 98.3794L59.7692 98.6135Z" fill="#292728"/>
<path d="M25.8367 61.9277C23.3895 62.3864 21.7775 64.7421 22.2362 67.1892C22.6949 69.6364 25.0506 71.2484 27.4978 70.7897C29.945 70.331 31.5569 67.9753 31.0982 65.5281C30.6395 63.081 28.2838 61.469 25.8367 61.9277ZM29.777 66.6984L27.7254 67.083L28.1099 69.1337L26.3253 69.4682L25.9409 67.4175L23.8916 67.8016L23.5571 66.0174L25.6064 65.6333L25.2224 63.5842L27.0069 63.2496L27.391 65.2988L29.4426 64.9142L29.777 66.6984Z" fill="#DB4744"/>
<path d="M33.2284 52.2981L25.0958 54.1954L16.8633 55.6022C16.8633 55.6022 17.8018 58.2069 16.9629 60.9711L25.7716 59.1925L26.41 59.0638L35.3622 57.2564C33.5155 55.0345 33.2284 52.2981 33.2284 52.2981Z" fill="#9FACC7"/>
<path d="M35.4564 57.0537C35.5629 57.5815 35.2222 58.0955 34.6946 58.202L17.7818 61.6165C17.2544 61.723 16.7393 61.3817 16.6327 60.8542C16.5261 60.3265 16.8685 59.8122 17.3961 59.7056L34.3088 56.291C34.8364 56.1847 35.3498 56.5263 35.4564 57.0537Z" fill="#263238"/>
<path d="M33.5548 52.3259C33.651 52.8023 33.3427 53.2664 32.8662 53.3625L17.5884 56.4472C17.1121 56.5432 16.6471 56.2351 16.5508 55.7589C16.4545 55.2816 16.7635 54.8173 17.24 54.7212L32.5178 51.6365C32.9944 51.5405 33.4583 51.8486 33.5548 52.3259Z" fill="#263238"/>
<path d="M29.6637 51.8154C29.1153 49.0992 26.4682 47.3414 23.7522 47.89C21.036 48.4382 19.2785 51.0853 19.8267 53.8014L20.1195 55.2514L29.9564 53.2653L29.6637 51.8154ZM24.8101 53.125C23.7547 53.3379 22.7265 52.655 22.5136 51.6009C22.3006 50.5457 22.9835 49.5172 24.0386 49.3043C25.0929 49.0914 26.1214 49.7743 26.3343 50.8295C26.5473 51.8837 25.8644 52.9122 24.8101 53.125Z" fill="#263238"/>
<path d="M72.8112 98.7055C72.8112 98.7055 73.5124 99.4926 75.4312 100.016L74.8497 110.54C74.8497 110.54 73.1061 110.2 71.4199 110.955L72.8112 98.7055Z" fill="#FFBF9D"/>
<path d="M79.2952 98.5778L75.2268 98.38C74.6638 98.3526 74.185 98.7869 74.1576 99.3498L73.8978 104.698L73.638 110.045C73.6105 110.608 74.0449 111.087 74.6079 111.114L78.6763 111.312C79.2389 111.339 79.7176 110.905 79.745 110.342L80.005 104.994L80.2649 99.6467C80.2922 99.0836 79.8578 98.6051 79.2952 98.5778Z" fill="white"/>
<path d="M59.3941 109.147C59.4363 108.28 60.1579 107.615 61.0128 107.599C61.0116 107.589 61.0086 107.582 61.0069 107.576L59.4741 107.502C58.5689 107.458 57.864 106.682 57.9081 105.775C57.9519 104.872 58.7289 104.165 59.634 104.209L57.988 104.129C57.0829 104.085 56.3778 103.31 56.4218 102.404C56.4656 101.501 57.243 100.794 58.148 100.837L51.564 100.518C50.6595 100.474 49.954 99.6987 49.9981 98.7918C50.0419 97.8885 50.8194 97.1821 51.724 97.2262L52.7753 97.2772L61.5998 97.706L62.7894 97.7639C62.9901 97.7736 63.1774 97.5989 63.2445 97.4081C63.3122 97.2187 63.2492 96.9838 63.0868 96.863C61.5661 95.5747 60.0019 95.5756 60.0867 93.8298C60.1064 93.4247 60.3384 93.059 60.6973 92.8701C61.0569 92.6846 61.4888 92.699 61.8326 92.9124L72.6812 98.6085C72.9346 98.7659 73.083 99.0501 73.0685 99.349C72.9985 100.789 72.7515 105.868 72.6011 108.964C72.5349 110.327 71.3773 111.379 70.0125 111.313C65.6022 111.099 60.9597 110.873 60.9597 110.873C60.055 110.829 59.3501 110.054 59.3941 109.147Z" fill="#FFBF9D"/>
<path d="M114.202 113.943C114.103 113.943 114.004 113.941 113.904 113.937L75.5566 112.339L76.1512 98.0706L105.301 100.368L99.0275 85.5096L111.282 80.8406L120.546 103.526C121.713 105.787 121.59 108.498 120.221 110.643C118.906 112.704 116.633 113.943 114.202 113.943Z" fill="#F9F9FA"/>
</g>
<defs>
<clipPath id="clip0_485_8261">
<rect width="151" height="151" fill="white"/>
</clipPath>
</defs>
</svg>
